<?xml version="1.0" standalone="no"?>
<!DOCTYPE svg PUBLIC "-//W3C//DTD SVG 20010904//EN"
 "http://www.w3.org/TR/2001/REC-SVG-20010904/DTD/svg10.dtd">
<svg version="1.0" xmlns="http://www.w3.org/2000/svg"
 width="1024.000000pt" height="1024.000000pt" viewBox="0 0 1024.000000 1024.000000"
 preserveAspectRatio="xMidYMid meet">
<metadata>
Created by potrace 1.14, written by Peter Selinger 2001-2017
</metadata>
<g transform="translate(0.000000,1024.000000) scale(0.100000,-0.100000)"
fill="#000000" stroke="none">
<path d="M5746 10149 c-12 -38 -14 -65 -7 -78 6 -8 11 3 15 34 7 44 2 74 -8
44z"/>
<path d="M5529 10049 c-13 -58 23 -89 105 -89 50 0 66 -13 66 -55 0 -28 25
-65 43 -65 4 0 7 29 7 64 0 55 -3 65 -17 65 -61 2 -165 20 -177 30 -8 7 -16
27 -18 44 -3 31 -3 31 -9 6z"/>
<path d="M5066 9963 c-6 -14 -5 -15 5 -6 7 7 10 15 7 18 -3 3 -9 -2 -12 -12z"/>
<path d="M5003 9933 c9 -2 23 -2 30 0 6 3 -1 5 -18 5 -16 0 -22 -2 -12 -5z"/>
<path d="M4943 9923 c-13 -2 -23 -11 -23 -19 0 -19 10 -17 40 6 25 20 24 21
-17 13z"/>
<path d="M4797 9799 c-21 -24 -1 -43 29 -26 19 11 19 13 3 28 -15 15 -18 15
-32 -2z"/>
<path d="M5723 9784 c-3 -8 -1 -26 5 -39 9 -19 7 -26 -9 -41 -17 -15 -18 -20
-6 -31 9 -9 23 -12 41 -7 26 6 26 7 11 31 -10 15 -14 34 -11 48 11 42 -16 76
-31 39z"/>
<path d="M4860 9780 c0 -5 7 -10 15 -10 8 0 15 5 15 10 0 6 -7 10 -15 10 -8 0
-15 -4 -15 -10z"/>
<path d="M5170 9762 c0 -5 23 -14 50 -21 54 -14 59 -24 32 -58 -16 -21 -26
-23 -137 -24 -103 -2 -126 1 -165 18 -25 12 -57 24 -73 27 -15 4 -36 15 -47
26 -11 11 -22 15 -25 10 -8 -14 -59 -12 -72 1 -9 9 -26 9 -69 0 -32 -6 -75
-11 -97 -11 -22 0 -90 -18 -151 -39 -157 -56 -169 -58 -190 -26 -28 42 -55 32
-137 -49 -78 -78 -108 -93 -149 -79 -16 6 -42 4 -70 -3 -26 -7 -35 -13 -22
-13 30 -1 28 -18 -5 -34 -33 -17 -123 -28 -123 -16 0 5 -25 9 -55 9 -46 0 -55
-3 -55 -18 0 -9 -10 -23 -21 -31 -39 -23 -93 -54 -131 -73 -51 -25 -236 -236
-295 -336 -59 -101 -71 -131 -57 -143 16 -13 19 -55 4 -64 -6 -4 -17 -21 -24
-40 -8 -18 -24 -36 -35 -40 -12 -3 -21 -11 -21 -16 0 -5 -11 -19 -26 -31 -21
-19 -24 -28 -19 -60 7 -38 0 -49 -107 -160 -20 -20 -23 -38 -8 -38 18 0 0 -69
-40 -155 -42 -90 -60 -110 -89 -100 -16 5 -24 0 -32 -19 -7 -14 -20 -28 -29
-31 -26 -8 -52 -72 -40 -96 6 -10 15 -19 19 -19 5 0 11 -10 15 -22 7 -28 -24
-58 -60 -58 -14 0 -27 -7 -30 -15 -4 -8 -13 -15 -20 -15 -28 0 -55 -36 -49
-63 8 -29 -20 -85 -44 -89 -10 -2 -15 -15 -15 -38 -1 -28 -5 -35 -21 -35 -12
0 -21 -9 -25 -25 -5 -20 -12 -25 -38 -25 l-32 0 6 -77 c4 -44 3 -78 -2 -78 -5
0 -18 -7 -29 -16 -17 -12 -18 -16 -5 -24 10 -6 15 -31 16 -84 l2 -75 -29 -6
c-16 -4 -33 -4 -38 0 -10 6 -31 -25 -31 -46 0 -10 3 -10 12 -1 17 17 73 15 87
-2 7 -8 11 -27 9 -43 -3 -25 -6 -28 -37 -25 -34 2 -51 -9 -51 -35 0 -7 11 -13
24 -13 18 0 25 -7 29 -27 3 -16 12 -55 21 -88 23 -90 22 -95 -20 -95 -21 0
-33 -4 -29 -10 3 -5 17 -10 31 -10 28 0 48 -39 41 -77 -3 -16 1 -23 17 -25 31
-4 46 -102 23 -150 -26 -55 -31 -105 -13 -115 20 -11 40 -182 26 -218 -7 -18
-3 -35 15 -70 27 -50 32 -84 14 -102 -7 -7 -9 -23 -5 -38 6 -22 9 -25 21 -15
8 7 15 19 15 26 0 8 5 14 11 14 6 0 8 -8 5 -17 -7 -22 3 -37 28 -46 12 -5 16
-13 11 -25 -13 -34 -33 -189 -33 -257 0 -38 -3 -77 -7 -87 -21 -50 22 -112 51
-74 8 11 14 30 14 42 0 12 7 27 15 34 13 11 23 55 29 131 2 20 10 46 18 58
l16 22 16 -23 c19 -26 22 -122 5 -165 -6 -15 -12 -61 -14 -102 -2 -51 -8 -78
-17 -85 -18 -13 -50 -133 -52 -196 -2 -63 18 -157 39 -180 12 -13 31 -20 57
-20 35 0 38 -2 38 -28 0 -15 4 -32 9 -37 4 -6 5 -36 2 -67 -5 -41 -3 -61 6
-71 13 -13 16 -47 10 -137 -2 -30 2 -69 9 -86 8 -19 9 -35 3 -45 -5 -7 -9 -28
-9 -46 0 -17 -4 -35 -10 -38 -16 -10 -11 -43 9 -57 28 -20 32 -48 15 -108 -9
-30 -17 -68 -18 -85 -1 -16 -7 -40 -14 -53 -11 -20 -10 -23 13 -34 31 -14 33
-47 5 -71 -33 -28 -23 -37 24 -23 39 12 46 12 51 -1 3 -9 -2 -29 -10 -46 -17
-35 -19 -50 -6 -75 19 -38 31 -91 31 -140 0 -47 2 -52 26 -58 23 -6 25 -11 20
-36 -3 -18 3 -55 15 -94 12 -36 18 -75 15 -87 -4 -17 2 -30 23 -49 29 -28 61
-85 61 -111 0 -20 28 -84 40 -92 5 -3 10 -14 10 -24 0 -10 10 -34 23 -52 21
-31 22 -37 10 -66 -15 -37 -9 -60 18 -68 10 -4 19 -15 19 -25 0 -25 21 -70 32
-70 5 0 13 -11 18 -25 5 -14 16 -25 23 -25 25 0 67 -41 67 -64 0 -12 6 -30 14
-41 7 -11 16 -32 19 -46 4 -14 18 -31 31 -39 26 -13 46 -56 46 -97 0 -16 8
-27 25 -33 14 -5 25 -14 25 -20 0 -5 11 -10 25 -10 19 0 29 -10 45 -40 11 -21
20 -47 20 -57 0 -10 7 -31 15 -47 8 -15 15 -39 15 -51 0 -13 7 -25 15 -29 8
-3 15 -12 15 -21 0 -8 12 -20 26 -25 14 -6 28 -19 31 -30 3 -11 9 -20 13 -20
4 0 10 -13 13 -29 6 -26 11 -30 57 -36 27 -4 50 -10 50 -15 0 -12 -29 -76 -30
-66 0 6 -5 5 -11 -1 -17 -17 -1 -54 23 -51 11 2 24 -4 28 -12 27 -57 38 -75
47 -73 6 1 18 -6 27 -16 15 -16 15 -19 1 -31 -8 -7 -15 -23 -15 -35 0 -21 3
-23 40 -18 33 5 41 2 46 -13 3 -11 10 -27 15 -37 9 -17 8 -17 -19 -3 -34 18
-63 6 -44 -17 16 -19 -11 -49 -35 -40 -11 5 -14 3 -9 -6 5 -8 17 -10 30 -6 11
3 47 8 79 10 52 4 60 2 64 -15 7 -27 5 -34 -17 -42 -12 -4 -25 -2 -34 8 -9 9
-17 10 -21 4 -8 -12 3 -50 14 -50 4 0 21 -11 37 -25 16 -14 39 -28 52 -31 12
-4 22 -13 22 -21 0 -9 -5 -11 -12 -7 -7 5 -27 7 -45 5 -23 -2 -33 2 -33 12 0
17 -72 17 -77 1 -2 -6 15 -30 39 -53 29 -29 38 -45 30 -50 -17 -11 -73 -1 -78
14 -4 10 -32 15 -94 17 -8 1 -23 -2 -32 -7 -14 -5 -18 -2 -18 15 0 17 4 20 20
15 11 -3 20 -2 20 4 0 5 9 13 20 16 12 4 20 15 20 28 0 12 11 35 25 51 14 16
25 31 25 33 0 1 -15 3 -34 3 -29 0 -33 -3 -29 -20 4 -15 2 -19 -10 -15 -18 8
-31 -23 -17 -40 7 -9 6 -16 -5 -25 -12 -10 -15 -9 -15 7 0 10 -7 29 -16 41 -8
12 -12 27 -9 32 3 6 -3 10 -15 10 -12 0 -19 -4 -15 -9 10 -17 -36 -41 -56 -31
-10 6 -29 10 -42 10 -25 0 -57 28 -57 49 0 9 -8 11 -23 7 -20 -5 -27 1 -47 37
-13 23 -32 48 -42 55 -10 7 -18 17 -18 22 0 5 -13 24 -30 42 -16 18 -30 40
-30 50 0 29 -41 88 -61 88 -15 0 -17 5 -13 29 6 27 -8 111 -24 151 -5 13 -21
84 -49 215 l-7 30 -9 -40 c-5 -22 -10 -109 -12 -193 -2 -128 0 -154 13 -161
12 -7 14 -22 9 -79 -5 -58 -2 -77 14 -109 16 -30 20 -62 22 -158 l3 -120 37
-50 c53 -73 78 -133 75 -179 l-3 -38 -26 25 c-26 26 -43 57 -75 135 -10 24
-25 49 -34 55 -23 16 -45 62 -60 125 -6 28 -17 55 -23 59 -17 11 0 -118 23
-164 11 -23 20 -55 20 -70 0 -29 27 -91 53 -122 7 -9 31 -53 53 -98 21 -45 47
-85 57 -88 19 -7 67 -94 67 -122 0 -10 11 -31 24 -48 34 -42 48 -25 36 40 -16
89 -22 110 -37 127 -8 9 -16 43 -18 80 -4 76 -14 128 -26 128 -16 0 -31 85
-26 140 5 49 3 58 -18 80 -16 17 -25 39 -26 65 -3 49 5 65 34 65 33 0 44 -11
59 -56 14 -39 13 -41 -6 -50 -12 -5 -22 -17 -24 -28 -3 -12 0 -16 8 -11 8 5
11 0 8 -16 -2 -19 2 -25 27 -29 22 -4 35 -15 48 -42 l19 -38 -29 -35 c-18 -21
-28 -45 -27 -62 1 -24 5 -28 31 -29 53 -2 59 -13 66 -136 3 -38 10 -65 22 -78
14 -15 19 -39 21 -84 2 -69 10 -103 29 -126 17 -21 28 -65 30 -128 2 -29 10
-63 19 -77 9 -13 16 -35 16 -48 0 -13 3 -27 8 -31 4 -4 7 -31 7 -59 0 -39 6
-61 25 -87 21 -30 26 -48 29 -123 3 -80 5 -89 25 -97 15 -5 28 -24 38 -57 l15
-48 89 -23 c148 -37 387 -82 406 -76 10 3 55 -4 100 -15 186 -46 608 -73 935
-60 256 10 528 40 742 82 103 20 114 24 123 47 26 68 54 113 79 125 15 8 41
37 57 64 33 54 80 101 99 101 22 0 14 -33 -17 -74 -17 -22 -30 -46 -30 -53 0
-7 -4 -13 -9 -13 -5 0 -9 -16 -8 -35 1 -25 -8 -46 -32 -76 -26 -32 -29 -40
-15 -36 11 3 38 11 62 17 24 6 46 19 50 28 3 9 22 40 42 68 20 29 45 80 55
115 10 35 27 76 37 91 10 14 18 33 18 41 0 9 4 18 9 21 4 3 11 25 15 48 7 42
21 68 37 68 14 0 11 -34 -7 -69 -13 -25 -13 -35 -4 -46 9 -11 10 -37 5 -90 -8
-91 7 -125 55 -125 26 0 30 -4 30 -27 1 -28 1 -27 16 6 10 24 14 65 13 130 -2
112 16 271 37 319 8 19 14 63 14 99 0 38 6 76 16 94 11 22 13 45 9 83 -8 73 6
104 55 123 33 13 38 19 30 34 -6 9 -7 25 -4 34 5 13 2 15 -20 9 -24 -6 -26 -4
-26 24 0 55 16 80 55 88 40 7 65 -7 65 -37 0 -25 17 -24 30 2 7 13 17 18 27
15 31 -12 43 13 43 93 0 47 6 87 15 104 9 18 14 57 14 115 -1 49 4 107 11 131
17 63 5 84 -23 40 -37 -58 -46 -73 -63 -104 -31 -57 -77 -125 -85 -125 -4 0
-11 -10 -15 -22 -6 -22 -57 -89 -116 -153 -16 -16 -28 -33 -28 -37 0 -5 -4 -8
-10 -8 -10 0 -31 -16 -78 -61 -15 -14 -42 -32 -59 -40 -23 -10 -33 -21 -33
-35 0 -12 -7 -25 -16 -28 -22 -9 -24 -8 -24 10 0 8 -5 12 -11 8 -8 -4 -8 -9 0
-17 30 -30 -12 -89 -52 -74 -8 3 -20 0 -26 -6 -8 -8 -14 -6 -24 7 -10 13 -18
15 -37 7 -14 -5 -20 -10 -15 -11 6 0 -5 -7 -23 -15 -24 -11 -39 -12 -53 -5
-14 8 -21 6 -30 -8 -7 -12 -20 -17 -33 -15 -21 4 -43 -11 -46 -32 0 -5 -10 -9
-21 -7 -10 2 -32 -6 -47 -17 -16 -11 -40 -23 -55 -26 -15 -4 -30 -11 -33 -16
-3 -5 -18 -9 -33 -9 -16 0 -34 -7 -41 -14 -20 -25 -74 -38 -117 -28 -35 8 -40
7 -37 -7 5 -20 -70 -57 -138 -70 -26 -5 -54 -13 -61 -20 -8 -6 -35 -14 -61
-17 -35 -5 -46 -11 -46 -24 0 -24 -23 -31 -72 -24 -28 5 -42 13 -45 25 -4 12
-13 18 -29 17 -25 -2 -31 -17 -14 -34 8 -8 7 -20 -1 -40 -12 -27 -13 -28 -16
-6 -3 14 -12 22 -26 23 -12 0 -16 3 -9 6 6 2 12 22 12 42 0 36 1 38 36 39 52
2 64 21 15 25 -12 1 -21 8 -21 17 0 13 7 15 29 12 22 -3 32 1 40 16 16 30 10
100 -11 127 -24 31 -23 34 13 71 l32 33 -25 23 c-49 47 -57 101 -17 129 15 10
32 19 38 19 7 0 29 9 51 20 22 11 50 20 64 20 14 0 28 5 32 11 3 6 27 19 52
30 25 11 75 39 111 63 36 24 79 46 95 50 16 4 43 18 61 32 17 13 41 24 53 24
11 0 22 4 24 8 2 4 27 23 56 42 28 18 52 37 52 42 0 4 8 8 18 8 29 0 82 30 82
45 0 8 6 12 14 9 14 -5 104 79 161 149 16 20 38 37 47 37 20 0 24 20 7 37 -16
16 8 28 26 13 17 -14 29 3 20 30 -5 15 -3 18 9 14 9 -3 27 4 42 15 15 12 33
21 40 21 8 0 14 10 14 21 0 18 -4 21 -30 16 -21 -5 -28 -3 -24 6 3 9 -7 12
-37 9 -22 -2 -43 -10 -46 -18 -3 -8 -11 -14 -18 -14 -7 0 -15 -5 -17 -12 -2
-6 -10 -8 -16 -4 -17 10 -15 26 3 26 14 0 14 3 0 30 -10 19 -11 30 -5 30 6 0
8 5 5 10 -3 6 5 10 19 10 30 0 42 15 19 24 -9 4 -24 -1 -35 -11 -12 -11 -31
-16 -49 -15 -32 4 -37 -10 -17 -53 14 -30 -3 -75 -28 -75 -11 0 -15 -6 -11
-18 9 -31 9 -37 8 -61 -1 -32 -17 -17 -28 26 -10 39 -20 33 -54 -32 -22 -41
-31 -50 -54 -50 -20 0 -30 -7 -40 -31 -16 -38 -34 -51 -46 -33 -12 21 -37 -16
-45 -68 -4 -29 -12 -44 -25 -48 -10 -4 -19 -15 -19 -26 0 -10 -5 -19 -11 -19
-7 0 -10 12 -7 29 4 26 2 28 -14 17 -10 -6 -18 -21 -18 -33 0 -19 -25 -43 -45
-43 -3 0 -10 12 -16 26 -9 26 -10 26 -29 9 -14 -13 -25 -15 -46 -8 -36 12 -49
33 -40 66 6 27 33 39 117 52 32 5 37 10 42 38 6 42 3 44 -27 13 -19 -22 -26
-24 -33 -13 -13 22 -53 40 -66 29 -7 -5 -26 -12 -43 -15 l-31 -6 2 48 c1 26 5
53 9 60 5 8 -2 23 -20 42 -31 33 -26 48 11 31 33 -15 68 3 53 27 -7 12 -1 32
22 74 17 31 35 57 40 57 15 0 19 -29 7 -60 -10 -25 -9 -33 3 -40 21 -13 30
-12 30 3 0 19 33 47 55 47 14 0 16 6 12 28 -12 62 48 84 78 28 10 -18 26 -38
36 -45 17 -10 19 -8 19 19 0 16 -4 30 -10 30 -5 0 -10 11 -10 25 0 14 5 25 10
25 6 0 10 12 10 26 0 20 -4 25 -16 20 -9 -4 -23 -1 -31 5 -10 9 -17 9 -25 1
-19 -19 -32 -14 -57 23 -13 19 -32 35 -41 35 -33 0 -50 12 -50 35 0 19 -5 22
-30 20 -17 -1 -33 -5 -36 -8 -4 -3 -13 0 -20 8 -14 14 -49 10 -73 -9 -7 -5
-23 -15 -34 -21 -34 -17 -31 -41 9 -77 24 -23 35 -40 32 -53 -4 -16 -8 -13
-23 18 -10 20 -26 38 -34 39 -31 3 -37 4 -78 23 -34 15 -43 24 -43 44 -1 16
-14 39 -35 61 -19 19 -35 40 -35 46 0 15 -32 78 -43 82 -4 2 -4 8 -1 14 3 5
-8 22 -26 37 -29 23 -32 31 -25 59 3 18 11 32 16 32 17 0 -23 58 -48 69 -12 6
-23 17 -23 25 0 7 -7 16 -15 20 -22 8 -38 -31 -31 -74 8 -51 -19 -63 -52 -25
l-23 27 -20 -26 c-26 -33 -34 -33 -49 5 -12 27 -11 32 9 45 20 15 30 54 13 54
-5 0 -19 -11 -32 -25 -13 -14 -29 -25 -35 -25 -14 0 -50 -38 -58 -62 -11 -31
-34 -19 -51 25 -15 39 -15 47 -2 79 8 19 21 40 29 47 8 6 21 26 28 44 7 18 17
38 22 44 5 7 11 31 12 54 4 50 7 54 35 37 18 -11 22 -11 30 2 5 8 16 24 25 35
16 19 16 18 12 -22 -3 -24 -2 -45 2 -47 3 -3 22 -1 41 3 43 8 59 50 29 77 -24
22 -24 36 0 58 25 23 43 12 35 -20 -6 -23 -4 -24 26 -17 22 4 31 3 27 -4 -10
-15 20 -24 31 -10 5 7 9 26 9 43 0 18 9 44 21 59 12 15 22 33 22 40 0 7 11 16
25 19 26 7 32 20 15 31 -19 12 -11 33 10 28 11 -3 20 -1 20 5 0 23 62 102 77
100 10 -2 19 7 23 24 l8 26 -69 1 c-58 0 -70 -2 -79 -19 -13 -24 -66 -26 -199
-9 -60 8 -113 9 -177 2 -126 -14 -150 -9 -164 33 -15 43 -27 50 -50 29 -14
-13 -29 -16 -56 -12 -39 7 -62 30 -79 82 -13 38 -36 38 -48 0 -14 -42 -26 -55
-53 -55 -18 0 -31 13 -54 53 -16 28 -30 61 -30 72 0 12 -4 25 -10 31 -14 14
-15 127 0 154 14 26 10 28 53 -31 7 -9 27 -24 45 -33 17 -9 32 -22 32 -30 0
-7 7 -27 16 -45 13 -26 19 -30 30 -20 8 6 14 26 14 44 0 35 25 65 56 65 12 0
33 -17 50 -39 28 -39 70 -67 77 -53 2 4 10 27 17 51 l14 43 65 -5 c57 -4 69
-9 91 -34 30 -36 47 -60 63 -93 19 -39 38 -30 54 25 8 28 19 59 23 70 5 11 11
28 14 38 4 13 16 17 52 17 37 0 47 4 51 20 3 10 14 22 24 25 18 6 56 52 48 58
-49 35 -59 37 -83 22 -22 -14 -24 -14 -30 2 -9 22 19 44 53 41 35 -2 139 21
146 33 4 5 16 9 28 9 22 1 57 21 57 34 0 16 47 45 83 51 37 7 38 8 23 29 -18
28 -10 42 32 51 32 7 32 6 32 -32 l0 -38 50 0 c45 0 49 2 44 21 -8 32 16 46
55 33 33 -12 85 1 104 25 6 8 10 7 14 -1 2 -7 17 -13 31 -13 37 -1 58 -19 66
-57 5 -22 15 -33 32 -37 15 -4 24 -14 24 -26 0 -10 5 -22 10 -25 13 -8 13 -52
-1 -61 -6 -3 -9 -17 -6 -31 2 -13 2 -21 -1 -19 -3 3 -10 -1 -16 -9 -7 -9 -46
-17 -110 -23 -63 -6 -102 -14 -107 -23 -5 -8 -9 -34 -8 -59 0 -25 0 -55 0 -68
-1 -23 -32 -56 -72 -76 -13 -6 -27 -28 -35 -54 -6 -23 -18 -50 -25 -58 -10
-13 -10 -17 0 -23 15 -9 71 9 71 22 0 5 18 6 40 2 32 -5 41 -3 46 9 3 9 17 16
29 16 13 0 27 5 30 10 4 6 23 22 43 35 20 14 54 37 75 51 49 32 99 30 107 -4
3 -13 8 -23 13 -22 4 0 21 -7 38 -17 29 -17 31 -17 40 0 12 21 28 21 55 -1 29
-25 36 -67 13 -88 -19 -17 -22 -2 -5 24 13 21 -3 27 -18 7 -8 -12 -18 -15 -27
-10 -12 7 -12 6 -1 -7 7 -8 10 -22 7 -30 -3 -8 3 -25 13 -38 18 -22 19 -22 40
-4 12 10 22 27 22 38 0 31 18 6 25 -37 6 -33 5 -37 -13 -37 -21 0 -38 -32 -27
-50 4 -7 -3 -7 -20 0 -31 12 -46 6 -38 -15 3 -9 0 -22 -6 -29 -10 -11 -7 -18
11 -31 23 -17 23 -17 -9 -10 -40 8 -41 2 -8 -37 14 -16 25 -33 25 -38 0 -9
-35 -20 -68 -20 -21 0 -23 -3 -17 -29 3 -17 2 -32 -4 -36 -6 -3 -11 -30 -11
-59 0 -59 -7 -74 -25 -49 -16 22 -35 8 -35 -25 0 -18 -11 -37 -31 -55 -26 -22
-30 -33 -27 -61 4 -32 2 -33 -20 -25 -41 16 -79 11 -94 -13 -14 -20 -13 -24 6
-39 16 -14 18 -20 9 -30 -9 -9 -9 -15 0 -25 34 -38 36 -41 24 -53 -6 -6 -16
-11 -22 -11 -19 0 -65 44 -65 63 0 23 -17 22 -29 -2 -9 -15 -6 -22 14 -35 25
-17 35 -61 15 -68 -6 -2 -13 -21 -17 -43 -3 -22 -12 -48 -20 -57 -9 -10 -12
-25 -8 -39 6 -19 4 -21 -18 -17 -18 4 -24 1 -20 -9 3 -7 9 -13 13 -13 5 0 11
-14 15 -31 7 -31 36 -52 43 -31 2 7 10 12 18 12 19 0 94 -40 94 -51 0 -15 22
-10 36 8 7 10 14 27 15 38 1 18 2 17 7 -3 4 -13 10 -23 15 -23 4 1 12 1 17 1
16 0 12 37 -5 44 -20 7 -19 24 4 67 l20 36 -29 34 c-16 19 -29 43 -29 54 0 20
0 20 17 0 9 -12 25 -24 35 -28 9 -3 17 -16 17 -27 0 -11 6 -20 13 -20 21 0 37
22 37 52 0 21 7 31 29 40 27 12 29 15 16 32 -17 23 -45 14 -45 -14 0 -31 -44
-23 -48 8 -2 12 -10 22 -18 22 -8 0 -14 6 -14 13 0 23 40 57 67 57 20 0 23 3
14 13 -6 8 -8 17 -4 20 12 13 61 7 73 -8 12 -14 16 -13 40 10 14 14 33 25 41
25 24 0 29 10 18 37 -10 28 -4 63 13 63 14 0 69 -60 79 -89 12 -29 20 -23 21
17 1 21 7 32 19 35 27 7 24 22 -12 59 -28 30 -30 37 -25 78 17 124 16 120 47
121 48 2 51 3 62 21 9 13 7 21 -6 36 -15 16 -17 30 -11 70 4 32 2 52 -5 56
-16 10 -13 36 4 36 8 0 15 -5 15 -11 0 -6 6 -9 13 -6 6 2 10 11 8 18 -8 30 0
94 14 115 19 30 19 44 -2 59 -15 11 -15 15 -4 29 12 14 11 16 -7 16 -26 0 -38
18 -23 33 13 13 15 54 2 61 -13 8 -2 42 20 62 22 19 25 40 7 46 -10 4 29 68
53 88 7 6 21 130 20 178 -1 19 -6 43 -12 54 -8 15 -8 19 0 14 7 -5 11 2 11 18
0 14 -4 26 -10 26 -5 0 -10 5 -10 10 0 6 -11 23 -25 38 -14 15 -28 37 -31 50
-4 12 -11 22 -16 22 -6 0 -8 9 -5 21 4 15 0 23 -14 26 -10 3 -19 14 -19 24 0
10 -8 24 -18 31 -30 22 -43 63 -27 85 19 24 19 34 0 27 -14 -6 -20 6 -16 29 2
12 -38 66 -76 105 -18 18 -33 35 -33 38 0 4 -12 16 -27 27 -59 47 -95 67 -118
67 -15 0 -23 5 -20 13 11 29 -54 71 -96 62 -22 -5 -34 -2 -42 9 -7 9 -33 20
-59 25 -43 7 -50 6 -78 -17 -32 -26 -38 -55 -19 -95 8 -18 8 -30 0 -46 -7 -11
-8 -21 -2 -21 16 0 22 -33 7 -48 -11 -11 -11 -19 -2 -37 22 -42 104 -125 135
-136 17 -6 33 -19 36 -30 4 -10 15 -19 26 -19 23 0 24 -21 4 -60 -10 -19 -20
-27 -30 -24 -9 4 -15 0 -15 -8 0 -8 -7 -23 -15 -34 -14 -18 -15 -17 -9 11 4
17 10 32 15 35 4 3 10 22 14 42 6 30 4 38 -13 47 -31 16 -67 13 -85 -7 -24
-26 -21 -42 13 -81 23 -26 29 -42 27 -67 -2 -19 -6 -37 -10 -40 -3 -3 -3 -12
0 -20 8 -21 -34 -18 -46 4 -8 13 -14 15 -28 6 -14 -9 -20 -7 -28 9 -5 11 -21
27 -34 36 -23 15 -23 14 -17 -7 7 -20 5 -22 -17 -17 -20 5 -26 1 -37 -25 -9
-22 -18 -30 -33 -28 -31 5 -32 27 -1 38 l28 11 -39 37 c-22 20 -44 35 -50 34
-12 -3 -53 -21 -78 -34 -23 -11 -47 6 -47 33 0 21 -15 25 -26 8 -4 -7 -21 -9
-42 -5 -25 4 -50 -2 -91 -20 -55 -26 -55 -26 -116 -9 -70 20 -117 21 -202 4
-53 -11 -67 -10 -107 5 -25 10 -56 29 -68 44 -13 15 -43 43 -68 62 -25 19 -46
38 -48 42 -2 5 -9 8 -16 8 -7 0 -18 17 -24 37 -9 31 -20 42 -59 59 -48 22
-142 47 -220 59 -39 6 -43 5 -49 -19 -6 -26 -10 -28 -39 -28 -8 0 -19 0 -24 1
-8 1 -14 83 -13 161 2 102 4 119 18 124 8 3 14 15 14 27 0 17 -4 20 -21 16
-24 -7 -68 26 -50 38 6 3 9 11 6 16 -10 15 -52 10 -70 -7 -23 -23 -90 -34
-112 -19 -41 28 -65 25 -140 -16 -40 -22 -73 -45 -73 -51 0 -7 -16 -9 -45 -5
-35 5 -45 3 -45 -8 0 -7 5 -17 10 -20 15 -9 2 -25 -20 -25 -22 0 -27 -7 -34
-44 -7 -38 -16 -45 -23 -18 -6 26 -16 28 -37 6 -10 -9 -24 -13 -36 -9 -11 4
-20 2 -20 -4 0 -6 -6 -11 -14 -11 -8 0 -17 -7 -20 -16 -3 -8 -2 -13 3 -10 5 3
12 -2 15 -11 7 -18 -6 -30 -41 -39 -13 -3 -23 -10 -23 -15 0 -5 -13 -6 -29 -3
-36 8 -47 -8 -31 -47 10 -23 15 -27 26 -18 11 9 14 9 14 0 0 -6 -11 -16 -23
-20 -47 -18 -69 -108 -36 -147 9 -11 8 -14 -3 -14 -11 0 -14 -7 -10 -25 2 -14
8 -25 13 -25 5 0 9 -7 9 -15 0 -8 -4 -15 -10 -15 -5 0 -10 7 -10 16 0 10 -7
14 -22 12 -24 -3 -28 -27 -14 -79 6 -22 4 -27 -13 -32 -14 -3 -21 -13 -21 -30
0 -14 -5 -38 -10 -53 -8 -19 -8 -29 0 -34 8 -5 8 -14 -1 -32 -8 -19 -8 -31 0
-47 11 -19 9 -21 -14 -21 -20 0 -25 -5 -25 -26 0 -22 -3 -24 -14 -15 -12 10
-14 9 -10 -6 3 -10 -4 -36 -16 -58 -11 -21 -20 -44 -20 -51 0 -15 -35 -54 -49
-54 -6 0 -11 9 -11 20 0 11 -8 23 -17 26 -45 15 -65 30 -70 56 -4 18 -12 28
-23 28 -36 0 -50 12 -50 42 0 24 -6 32 -36 44 -35 15 -38 14 -60 -7 -13 -12
-24 -31 -24 -41 0 -11 -7 -18 -20 -18 -21 0 -23 7 -20 53 2 31 -15 37 -23 7
-7 -26 -23 -25 -30 2 -8 27 1 41 20 33 12 -4 13 -2 5 7 -5 7 -12 23 -14 36 -3
24 -22 31 -24 9 -1 -6 -2 -16 -3 -22 -2 -14 -31 54 -31 74 0 9 7 29 15 44 13
25 13 31 -2 54 -15 23 -26 94 -26 166 0 26 -27 41 -27 15 -1 -9 -4 -8 -13 2
-14 18 -37 24 -37 10 0 -6 -5 -10 -11 -10 -13 0 -1 112 14 121 16 11 14 89 -3
99 -12 8 -13 12 -1 19 7 5 13 26 13 47 0 22 5 48 10 59 16 28 20 372 5 395 -8
14 -8 22 1 33 14 16 16 89 8 229 -4 64 -1 127 8 188 9 50 13 97 10 104 -3 8
-1 32 5 53 6 22 13 77 16 124 3 46 8 95 11 108 3 13 7 114 8 226 2 114 9 211
14 222 6 11 9 50 8 87 -3 52 0 71 14 89 10 12 27 63 39 112 12 50 27 98 32
108 7 13 6 27 -5 47 -12 25 -12 31 0 41 8 7 11 17 6 28 -13 27 2 181 17 181 4
0 19 18 34 40 14 22 21 40 16 40 -6 0 -8 19 -5 47 3 37 11 53 33 70 15 13 36
23 46 23 31 0 146 80 140 97 -4 9 2 16 16 20 15 4 21 13 21 32 1 31 24 66 39
56 6 -3 11 -3 12 2 0 4 1 19 3 33 1 15 12 37 24 50 19 20 22 32 17 62 -5 30
-2 40 17 58 13 11 31 28 41 37 9 9 17 22 17 30 0 7 5 13 10 13 6 0 10 7 10 16
0 8 -5 12 -11 8 -21 -13 10 34 36 54 14 11 25 24 25 30 0 5 11 13 25 16 14 4
25 12 25 19 0 16 62 77 78 77 6 0 16 9 23 21 8 17 18 20 45 17 21 -2 34 0 34
7 0 17 35 46 50 43 7 -2 14 5 15 15 4 21 42 55 70 61 11 3 32 7 47 10 15 3 34
13 43 22 18 18 92 28 100 13 6 -9 35 4 66 29 13 10 18 10 29 -3 25 -30 90 -57
119 -50 26 8 98 10 116 5 6 -2 23 0 39 5 17 5 31 4 35 -3 4 -6 19 -8 41 -3 21
4 42 3 53 -3 12 -8 22 -7 35 2 9 6 27 16 40 22 12 5 22 14 22 20 0 13 37 13
45 0 3 -5 17 -10 31 -10 17 0 24 5 24 20 0 24 8 25 60 4 40 -16 42 -16 61 5
23 25 26 25 62 9 17 -8 27 -21 27 -34 0 -25 24 -49 40 -39 5 3 10 13 10 22 0
10 5 13 18 8 26 -11 46 -11 47 0 1 25 16 35 37 24 14 -8 23 -8 31 0 6 6 23 11
38 11 19 0 30 6 34 20 7 22 26 25 54 10 15 -7 25 -3 50 20 23 23 40 30 70 30
23 0 41 5 44 13 4 10 21 12 66 9 41 -3 61 -1 61 7 0 6 7 11 15 11 8 0 15 -5
15 -10 0 -6 7 -27 15 -47 15 -35 24 -39 29 -11 7 39 21 60 49 73 18 8 43 24
58 35 20 17 30 19 51 11 25 -9 39 -7 135 20 50 13 73 7 73 -21 0 -23 18 -27
26 -5 8 20 40 28 64 15 16 -9 24 -8 36 5 18 18 28 20 18 3 -5 -8 -1 -9 14 -5
12 4 31 10 42 13 14 5 20 2 20 -9 0 -21 19 -32 33 -18 6 6 17 11 25 11 15 0
13 -41 -3 -82 -4 -11 -3 -18 4 -18 6 0 11 9 11 19 0 11 5 23 10 26 6 3 10 1
10 -5 0 -8 9 -10 23 -6 13 3 32 0 42 -8 19 -14 55 -10 55 5 0 16 29 10 39 -8
8 -15 12 -16 22 -5 19 18 26 15 32 -13 3 -16 -2 -34 -13 -47 -9 -12 -15 -30
-13 -39 6 -22 66 -69 87 -69 9 0 16 -7 16 -15 0 -9 9 -15 24 -15 30 0 97 -53
112 -89 12 -29 58 -71 78 -71 15 0 116 -92 116 -106 0 -7 11 -9 25 -6 20 3 27
-1 35 -22 10 -27 4 -56 -11 -56 -21 0 -7 -22 26 -41 24 -15 35 -28 35 -45 0
-15 10 -30 28 -41 47 -29 72 -56 72 -76 0 -21 35 -57 55 -57 7 0 15 -13 18
-28 4 -17 16 -33 31 -40 27 -12 61 -66 51 -82 -3 -5 19 -33 50 -63 54 -54 72
-97 40 -97 -21 0 -19 -27 6 -67 12 -18 18 -40 15 -48 -3 -8 -1 -17 4 -20 6 -4
10 -23 10 -44 0 -22 6 -44 15 -51 10 -8 13 -22 9 -39 -17 -74 -17 -77 10 -89
20 -9 26 -19 26 -43 0 -28 -3 -31 -25 -27 -35 7 -32 -12 10 -52 35 -34 44 -67
25 -86 -7 -7 -6 -20 5 -40 8 -16 15 -36 15 -45 0 -8 11 -48 25 -88 13 -39 21
-79 18 -87 -3 -9 3 -21 16 -30 22 -16 29 -58 11 -69 -5 -3 -10 -15 -10 -26 0
-11 5 -17 10 -14 6 3 13 -1 16 -9 3 -9 16 -16 28 -16 12 0 28 -9 36 -20 8 -11
24 -21 35 -21 17 -1 17 -2 3 -6 -10 -2 -18 -12 -18 -21 0 -13 2 -14 8 -4 5 7
16 10 24 7 9 -4 18 -3 21 2 7 12 -16 119 -37 167 -16 39 -22 106 -8 106 4 0
12 -8 19 -19 15 -23 96 -36 123 -18 11 6 20 20 20 30 0 16 -5 18 -26 13 -30
-8 -54 8 -54 34 0 12 -18 24 -59 40 -33 12 -62 28 -65 35 -2 7 6 23 20 36 21
20 22 24 9 39 -20 22 -75 146 -75 169 0 47 40 23 61 -37 6 -18 15 -32 20 -32
5 0 9 -7 9 -15 0 -8 5 -15 10 -15 6 0 10 -11 10 -24 0 -40 10 -58 25 -46 8 6
24 12 37 14 42 4 67 29 64 62 -2 17 -10 30 -19 32 -14 3 -30 31 -32 56 0 5
-14 16 -32 26 -25 13 -29 20 -20 29 9 9 6 16 -13 31 -14 11 -31 20 -37 20 -7
0 -13 5 -13 11 0 7 7 8 18 4 9 -5 40 -12 67 -16 28 -5 67 -11 88 -15 27 -5 44
-1 65 12 15 10 33 17 40 16 17 -4 15 21 -4 60 -12 25 -26 37 -57 47 -70 21
-96 57 -33 45 19 -3 49 -3 66 1 26 6 31 11 28 33 -2 20 -11 28 -35 34 -38 10
-58 37 -68 91 l-6 39 33 -7 c18 -4 49 -21 68 -36 47 -39 52 -36 27 11 -21 38
-21 41 -4 51 23 14 22 25 -5 34 -21 7 -20 8 10 12 33 4 41 20 20 41 -9 9 -7
13 5 18 21 8 22 21 2 41 -12 12 -13 18 -4 29 6 8 18 14 26 14 11 0 12 9 7 38
-9 49 -11 52 -40 52 -13 0 -24 6 -24 13 0 12 39 52 52 52 3 0 10 3 14 8 4 4
-6 8 -22 9 -16 1 -38 2 -49 3 -11 1 -38 3 -59 4 -38 1 -39 1 -21 21 10 11 24
20 30 20 7 0 18 7 26 16 11 14 7 20 -26 49 l-39 32 34 19 c19 10 41 17 48 16
19 -4 14 26 -5 36 -10 5 -38 12 -63 16 -24 4 -52 14 -62 23 -16 15 -24 14 -95
-3 -43 -10 -87 -18 -97 -16 -11 1 -44 -4 -75 -12 -90 -23 -151 -30 -151 -17 0
6 15 11 33 11 43 0 102 22 130 48 14 14 30 19 44 16 25 -7 63 11 63 30 0 20
44 56 68 56 27 0 39 25 22 45 -6 8 -31 17 -56 21 l-44 6 21 29 c13 18 29 29
44 29 35 0 41 20 14 42 -16 13 -34 17 -56 14 -18 -3 -36 0 -39 6 -8 13 38 49
81 63 36 12 40 39 5 43 -30 4 -60 29 -60 49 0 8 -17 35 -37 60 l-38 46 28 -7
c48 -12 65 -1 63 44 -1 46 8 58 30 40 13 -12 17 -11 25 1 13 20 7 53 -11 57
-8 1 -20 -7 -25 -19 -13 -29 -58 -34 -80 -9 -25 28 -9 43 36 36 36 -6 39 -5
39 18 0 13 -5 26 -10 28 -6 2 -16 37 -22 78 -6 41 -16 78 -22 82 -6 4 -28 7
-48 6 -34 -1 -38 -4 -38 -29 0 -15 6 -29 13 -32 8 -3 7 -7 -5 -12 -11 -4 -29
1 -48 15 -17 12 -38 19 -46 16 -13 -5 -10 -12 15 -41 17 -20 31 -40 31 -45 0
-19 -31 -10 -55 16 -20 22 -25 23 -32 9 -5 -8 -26 -18 -46 -22 -32 -5 -36 -3
-31 11 3 9 2 16 -4 16 -5 0 -12 9 -15 20 -7 26 -41 26 -90 1 -35 -18 -37 -18
-37 -1 0 10 7 23 15 30 29 24 16 33 -35 27 -27 -3 -50 -5 -50 -3 0 2 7 20 16
41 14 35 17 37 50 32 25 -4 34 -2 34 9 0 8 -5 14 -12 14 -9 0 -9 3 0 12 9 9
15 9 24 0 8 -8 17 -8 31 0 14 7 37 6 81 -3 33 -7 69 -12 79 -10 10 1 29 -5 43
-13 27 -18 29 -11 13 31 -6 15 -14 50 -18 78 -6 47 -8 51 -46 63 -22 8 -49 16
-60 18 -87 17 -84 17 -94 -9 -5 -14 -21 -27 -35 -31 -25 -6 -37 -26 -16 -26 6
0 10 -7 10 -15 0 -18 -38 -20 -60 -2 -17 13 -19 32 -6 60 5 10 6 21 2 24 -11
11 -58 -21 -67 -45 -7 -18 -14 -21 -36 -16 -41 10 -44 13 -37 37 5 17 4 19 -6
10 -7 -6 -12 -23 -12 -37 0 -28 -16 -32 -77 -20 -25 5 -32 12 -30 28 2 35 0
39 -16 26 -12 -10 -18 -10 -31 1 -13 10 -17 10 -25 -2 -12 -19 -11 -43 3 -57
8 -8 8 -15 -2 -27 -38 -46 -96 -37 -84 13 4 15 10 32 14 37 14 18 15 50 3 51
-7 1 -18 2 -24 3 -15 2 0 63 20 77 14 11 14 14 -2 31 -22 25 -22 49 2 56 12 3
19 13 19 29 0 34 30 95 58 117 28 22 33 47 7 36 -10 -4 -29 -10 -43 -12 -66
-11 -71 -14 -66 -31 4 -13 -3 -21 -27 -30 -17 -7 -46 -19 -63 -27 -40 -17
-160 -30 -167 -18 -11 17 76 67 125 72 4 1 4 17 1 36 -4 27 -1 39 11 48 24 17
1 46 -41 53 -68 11 -136 -25 -167 -88 -11 -22 -17 -23 -117 -23 -100 0 -107 1
-142 28 -21 15 -51 33 -69 39 -18 6 -47 26 -65 45 -18 18 -47 40 -63 48 -34
18 -80 64 -80 81 0 9 -48 34 -65 34 -2 0 -19 -54 -31 -97 -5 -18 -75 -16 -102
3 -12 8 -22 10 -22 5 0 -6 -4 -11 -10 -11 -5 0 -19 -9 -30 -20 -19 -19 -22
-19 -57 -5 -62 26 -83 58 -48 71 20 8 19 30 -1 38 -9 3 -31 6 -50 6 -19 0 -42
4 -52 10 -9 5 -60 19 -112 30 -52 10 -113 24 -135 29 -49 13 -65 13 -65 3z
m198 -83 c2 -4 15 -4 28 2 14 5 34 9 44 9 22 0 68 -36 58 -45 -4 -4 -47 -8
-96 -10 l-90 -3 -4 29 c-3 16 -2 31 0 34 7 7 56 -6 60 -16z m-590 -31 c2 -5
25 -6 52 -2 42 6 49 4 59 -14 10 -18 8 -24 -13 -38 -16 -10 -35 -14 -53 -10
-38 8 -119 17 -168 17 -44 1 -88 24 -82 42 2 7 21 15 43 18 49 7 158 -1 162
-13z m1828 -170 c8 -12 -22 -38 -43 -38 -11 0 -10 6 4 25 20 27 29 30 39 13z
m-2946 -38 c0 -5 -4 -10 -10 -10 -5 0 -10 5 -10 10 0 6 5 10 10 10 6 0 10 -4
10 -10z m2880 -29 c0 -22 -16 -36 -24 -22 -8 12 3 41 15 41 5 0 9 -9 9 -19z
m249 -128 l21 -26 -20 -22 c-11 -12 -20 -29 -20 -38 0 -15 -28 -37 -47 -37
-13 0 -46 67 -39 79 4 6 3 11 -3 11 -5 0 -13 -4 -16 -10 -9 -14 -21 -12 -39 6
-23 23 -19 37 9 32 16 -3 30 1 41 13 27 30 88 25 113 -8z m-220 -17 c7 -8 11
-30 9 -48 -2 -27 -8 -33 -28 -35 -33 -4 -55 15 -63 54 -5 27 -3 32 16 36 42 8
55 7 66 -7z m631 -279 c0 -14 -40 -37 -63 -37 -7 0 -18 4 -26 9 -12 8 -12 12
-2 25 17 20 91 22 91 3z m-120 -167 c0 -5 -8 -10 -17 -10 -15 0 -16 2 -3 10
19 12 20 12 20 0z m20 -215 c-7 -8 -19 -15 -26 -15 -20 0 -17 27 4 39 23 13
39 -3 22 -24z m-889 -118 c-16 -16 -26 0 -10 19 9 11 15 12 17 4 2 -6 -1 -17
-7 -23z m-604 -103 c-3 -3 -12 -4 -19 -1 -8 3 -5 6 6 6 11 1 17 -2 13 -5z
m1846 -521 c-7 -2 -21 -2 -30 0 -10 3 -4 5 12 5 17 0 24 -2 18 -5z m-129 -186
c39 -22 54 -51 34 -63 -6 -4 -17 1 -24 10 -7 10 -17 15 -22 12 -11 -7 -72 40
-72 55 0 16 44 9 84 -14z m225 -63 c29 -9 -7 -26 -65 -30 -64 -5 -90 5 -81 30
5 13 17 15 69 10 35 -3 69 -8 77 -10z m39 -445 c-3 -8 -7 -3 -11 10 -4 17 -3
21 5 13 5 -5 8 -16 6 -23z m47 -136 c9 -21 23 -45 32 -55 15 -17 15 -19 -2
-31 -14 -11 -16 -17 -6 -35 17 -31 5 -45 -23 -27 -30 20 -45 55 -39 89 4 17 0
31 -10 39 -11 9 -13 18 -6 35 13 33 37 27 54 -15z m319 -29 c29 -11 17 -24
-23 -24 -25 0 -41 5 -45 15 -4 11 2 15 23 15 16 0 36 -3 45 -6z m-146 -533 c5
-14 -27 -3 -50 17 -10 8 -18 19 -18 25 0 11 63 -28 68 -42z m-3342 -2002 c3
-6 17 -8 29 -5 13 3 27 2 30 -4 3 -5 21 -10 39 -10 21 0 40 -8 55 -24 l23 -24
-35 -11 c-19 -7 -43 -21 -52 -31 -20 -23 -85 -28 -85 -7 0 8 -3 8 -9 -2 -13
-20 -44 -5 -38 18 2 10 -3 22 -14 29 -26 17 -19 65 12 73 35 10 37 10 45 -2z
m-830 -34 c13 -13 13 -15 1 -15 -8 0 -17 7 -21 15 -3 8 -3 15 0 15 3 0 12 -7
20 -15z m2879 4 c4 -6 5 -13 2 -16 -8 -7 -47 7 -47 18 0 13 37 11 45 -2z
m-800 -218 c3 -5 1 -12 -5 -16 -5 -3 -10 1 -10 9 0 18 6 21 15 7z m787 -159
c-7 -2 -10 -8 -6 -13 3 -5 1 -9 -5 -9 -14 0 -23 18 -16 30 3 5 13 6 22 3 11
-4 13 -8 5 -11z m48 -23 c0 -5 -7 -9 -15 -9 -8 0 -15 7 -15 15 0 9 6 12 15 9
8 -4 15 -10 15 -15z m-2090 -69 c0 -5 -4 -10 -10 -10 -5 0 -10 5 -10 10 0 6 5
10 10 10 6 0 10 -4 10 -10z m-119 -10 c0 10 3 8 8 -5 5 -11 7 -23 5 -26 -6
-11 -54 3 -54 16 0 17 23 25 32 11 5 -7 8 -6 9 4z m-1201 -120 c0 -5 -5 -10
-11 -10 -5 0 -7 5 -4 10 3 6 8 10 11 10 2 0 4 -4 4 -10z m287 -156 c-3 -3 -12
-4 -19 -1 -8 3 -5 6 6 6 11 1 17 -2 13 -5z m2813 -34 c0 -5 -4 -10 -10 -10 -5
0 -10 5 -10 10 0 6 5 10 10 10 6 0 10 -4 10 -10z m-2840 -20 c0 -5 -5 -10 -11
-10 -5 0 -7 5 -4 10 3 6 8 10 11 10 2 0 4 -4 4 -10z m832 -54 c10 -7 22 -25
27 -39 6 -16 18 -27 30 -27 10 0 21 -6 24 -14 3 -8 19 -17 36 -21 16 -3 35
-13 42 -21 7 -8 26 -21 43 -28 23 -10 31 -20 32 -40 1 -15 5 -30 8 -34 10 -9
61 13 59 26 -2 7 2 12 8 12 6 0 9 -6 6 -14 -3 -8 0 -20 8 -26 8 -6 12 -17 9
-23 -5 -14 66 -57 95 -57 11 0 22 -9 26 -20 8 -25 25 -26 20 -1 -3 14 1 18 16
14 20 -5 27 -23 9 -23 -19 0 -10 -17 15 -28 26 -12 25 -42 -1 -42 -16 0 -54
-35 -54 -50 0 -5 10 -10 23 -10 17 0 19 -2 7 -9 -8 -6 -17 -8 -20 -6 -4 2 -4
-9 -2 -25 5 -37 -28 -58 -66 -41 -24 11 -24 11 -19 -18 8 -37 -8 -49 -32 -27
-17 16 -20 16 -35 0 -12 -12 -14 -20 -7 -27 6 -6 11 -23 11 -38 0 -15 5 -31
10 -34 6 -3 7 -18 4 -32 -6 -23 -4 -25 13 -21 11 3 30 -2 43 -12 20 -15 28
-16 64 -5 23 7 65 25 94 40 36 18 62 25 78 21 35 -9 26 -26 -23 -45 -54 -21
-60 -28 -37 -46 13 -10 32 -13 59 -9 27 3 47 0 60 -9 19 -15 19 -15 0 -36 -10
-12 -25 -19 -32 -17 -7 3 -15 1 -18 -4 -3 -5 4 -11 15 -15 35 -11 26 -38 -57
-155 -10 -14 -26 -31 -35 -38 -10 -7 -18 -21 -18 -31 0 -22 -19 -41 -43 -41
-10 0 -21 -9 -24 -20 -3 -11 -9 -20 -13 -20 -15 0 -18 -39 -3 -44 12 -5 10
-11 -9 -35 -32 -41 -42 -38 -34 8 l6 40 -47 3 c-39 2 -49 7 -51 23 -2 11 -10
27 -17 35 -7 8 -15 27 -19 43 -3 15 -11 27 -17 27 -6 0 -7 -4 -4 -10 3 -6 -5
-10 -19 -10 -18 0 -24 4 -20 14 3 8 -4 20 -15 28 -26 18 -42 59 -30 80 14 24
-15 42 -57 35 l-36 -6 6 32 c5 25 1 38 -14 55 -12 12 -17 22 -12 22 4 0 14 21
22 48 8 26 16 53 18 60 2 6 -3 12 -11 12 -8 0 -26 9 -41 21 -20 16 -26 29 -26
59 0 21 -6 43 -15 50 -8 7 -15 19 -15 26 0 8 7 14 15 14 26 0 16 28 -14 38
-16 6 -35 23 -43 39 -9 20 -22 29 -43 31 -17 2 -38 11 -47 19 -20 17 -24 43
-8 43 6 0 10 7 10 15 0 9 8 14 23 12 14 -1 22 3 22 13 0 8 -8 14 -18 14 -15
-2 -16 4 -11 32 6 34 1 39 -32 35 -18 -2 -35 101 -20 119 7 8 16 22 19 32 3 9
20 19 37 23 18 4 41 16 51 26 10 10 30 19 44 19 31 0 31 7 3 37 -23 25 -14 31
14 9z m-1152 -110 c0 -3 -4 -8 -10 -11 -5 -3 -10 -1 -10 4 0 6 5 11 10 11 6 0
10 -2 10 -4z m1563 -142 c-7 -19 -33 -5 -33 17 0 16 3 17 19 7 10 -6 17 -17
14 -24z m797 -24 c0 -5 -4 -10 -10 -10 -5 0 -10 5 -10 10 0 6 5 10 10 10 6 0
10 -4 10 -10z m1100 -76 c0 -8 -4 -12 -10 -9 -5 3 -10 13 -10 21 0 8 5 12 10
9 6 -3 10 -13 10 -21z m-2487 -480 c13 -14 -7 -34 -34 -34 -47 0 -36 37 12 39
9 1 18 -2 22 -5z m1151 -150 c14 -6 14 -9 -1 -35 -13 -21 -20 -26 -30 -17 -16
13 -16 25 0 43 15 17 12 16 31 9z m-68 -53 c-1 -58 -12 -74 -32 -47 -19 27
-18 66 4 82 26 21 29 18 28 -35z m-1576 4 c0 -8 -4 -15 -10 -15 -5 0 -10 7
-10 15 0 8 5 15 10 15 6 0 10 -7 10 -15z m2554 -79 c-3 -9 -10 -16 -15 -16 -6
0 -5 9 1 21 13 24 24 20 14 -5z m-159 -6 c3 -5 1 -10 -4 -10 -6 0 -11 5 -11
10 0 6 2 10 4 10 3 0 8 -4 11 -10z m-1200 -50 c3 -5 -1 -10 -9 -10 -9 0 -16 5
-16 10 0 6 4 10 9 10 6 0 13 -4 16 -10z m513 -84 c3 -12 -1 -17 -10 -14 -7 3
-15 13 -16 22 -3 12 1 17 10 14 7 -3 15 -13 16 -22z m212 -121 c0 -8 -4 -15
-9 -15 -5 0 -11 7 -15 15 -3 9 0 15 9 15 8 0 15 -7 15 -15z m137 -82 c7 -15
11 -28 9 -31 -6 -5 -66 27 -66 37 0 31 42 27 57 -6z m-2323 -188 c22 -22 28
-52 16 -75 -24 -44 -60 -11 -60 54 0 39 17 47 44 21z m2303 -37 c15 -37 16
-98 0 -98 -21 0 -37 22 -37 50 0 33 10 70 20 70 4 0 11 -10 17 -22z m-1523
-92 c12 5 15 2 10 -10 -4 -10 -13 -15 -21 -12 -8 3 -21 6 -29 6 -8 0 -14 10
-14 22 0 20 1 20 19 4 10 -9 25 -14 35 -10z m1528 -71 c0 -5 -5 -11 -11 -13
-6 -2 -11 4 -11 13 0 9 5 15 11 13 6 -2 11 -8 11 -13z m-182 -81 c0 -8 -4 -12
-10 -9 -5 3 -10 10 -10 16 0 5 5 9 10 9 6 0 10 -7 10 -16z m223 -28 c10 -30
-15 -80 -36 -73 -24 7 -38 52 -26 85 9 26 14 30 32 23 11 -4 25 -20 30 -35z
m-1572 2 c15 -6 32 -67 22 -78 -2 -2 -16 2 -31 11 -22 12 -27 21 -25 49 2 46
2 47 11 34 4 -6 14 -13 23 -16z m99 12 c-11 -7 -12 -12 -3 -18 15 -10 -4 -37
-33 -46 -16 -5 -23 -2 -27 13 -3 13 1 21 14 24 11 3 19 12 19 21 0 10 9 16 23
16 18 0 19 -2 7 -10z m1545 -19 c0 -23 -22 -24 -28 -1 -4 16 -1 20 11 18 9 -2
17 -10 17 -17z m-1466 -78 c39 -23 46 -41 25 -64 -18 -20 -13 -49 9 -49 8 0
20 -7 27 -15 7 -8 16 -12 21 -9 5 3 6 -2 3 -11 -6 -14 -8 -14 -24 0 -26 23
-82 16 -95 -12 -9 -21 -10 -21 -20 10 -5 18 -20 36 -32 42 -26 11 -30 33 -8
41 8 4 15 19 15 35 0 16 7 32 18 38 23 14 26 14 61 -6z m2692 -127 c-15 -14
-24 -17 -31 -10 -16 16 -2 62 24 80 20 14 21 13 24 -17 2 -22 -3 -38 -17 -53z
m-2519 9 c0 -5 -5 -11 -11 -13 -6 -2 -11 4 -11 13 0 9 5 15 11 13 6 -2 11 -8
11 -13z m83 -35 c-3 -5 -13 -10 -21 -10 -8 0 -12 5 -9 10 3 6 13 10 21 10 8 0
12 -4 9 -10z m-50 -41 c19 -17 32 -35 29 -41 -3 -5 2 -15 12 -23 24 -17 14
-27 -28 -29 -22 -1 -34 -7 -36 -19 -2 -9 1 -17 6 -17 6 0 8 -9 5 -20 -4 -15
-11 -18 -29 -14 -20 5 -23 3 -17 -12 4 -12 3 -15 -5 -10 -7 4 -12 13 -12 19 0
18 -39 39 -61 32 -16 -5 -19 -1 -19 24 0 17 -4 31 -10 31 -5 0 -10 7 -10 15 0
15 -7 25 -38 60 -12 13 -9 15 20 15 34 -1 68 -19 68 -38 0 -5 15 -19 32 -30
32 -21 33 -21 50 -2 23 25 23 30 -2 30 -11 0 -20 5 -20 10 0 6 -9 10 -20 10
-11 0 -20 7 -20 15 0 18 36 20 43 3 3 -8 6 -6 6 5 1 25 15 21 56 -14z m-297
-21 c-2 -7 5 -12 15 -12 9 1 17 -2 17 -6 0 -5 9 -12 20 -15 26 -8 26 -27 0
-43 -19 -11 -22 -10 -31 18 -6 16 -17 30 -25 30 -8 0 -14 9 -14 20 0 11 5 20
10 20 6 0 9 -6 8 -12z m1162 -78 c-20 -13 -33 -13 -25 0 3 6 14 10 23 10 15 0
15 -2 2 -10z m-670 -41 c11 -8 12 -12 3 -16 -7 -2 -13 -11 -13 -19 0 -9 4 -13
9 -10 5 3 11 0 14 -8 9 -22 -5 -28 -18 -9 -10 14 -16 15 -27 5 -18 -15 -28 -6
-28 26 0 20 4 23 21 19 15 -4 19 -2 15 9 -6 17 3 18 24 3z m-395 -29 c3 -5 -1
-10 -10 -10 -9 0 -13 5 -10 10 3 6 8 10 10 10 2 0 7 -4 10 -10z m53 -2 c-6
-18 -28 -21 -28 -4 0 9 7 16 16 16 9 0 14 -5 12 -12z m-598 -90 c0 -5 -8 -8
-17 -6 -12 2 -19 14 -21 33 l-2 30 20 -24 c11 -13 20 -28 20 -33z m75 -143
c25 -26 31 -50 17 -71 -11 -18 -78 -26 -90 -12 -14 17 -26 84 -17 97 12 20 63
12 90 -14z m1517 -122 c-3 -16 -11 -23 -26 -23 -29 0 -35 7 -29 29 3 12 13 18
32 17 23 -1 27 -5 23 -23z m-1538 11 c8 -3 12 -12 9 -20 -3 -8 -1 -15 3 -15 5
-1 19 -3 32 -4 28 -3 49 -29 57 -73 7 -39 -7 -62 -39 -62 -12 0 -27 -5 -34
-12 -10 -10 -17 -8 -32 8 -20 20 -23 43 -20 152 2 35 1 35 24 26z m2927 -61
c-10 -17 -10 -16 -11 3 0 23 13 41 18 25 2 -6 -1 -18 -7 -28z m-111 -76 c0
-19 -52 -86 -67 -87 -20 0 -15 45 8 74 21 27 59 36 59 13z m-2690 -123 c8 -8
14 -34 14 -57 1 -35 -3 -43 -25 -54 -15 -7 -41 -16 -57 -19 -29 -6 -31 -4 -43
35 -17 57 -4 94 36 102 50 11 62 10 75 -7z m27 -178 c13 -12 23 -32 23 -45 0
-32 -72 -101 -105 -101 -14 0 -25 -4 -25 -10 0 -5 -9 -10 -20 -10 -15 0 -20 7
-20 25 0 19 5 25 17 23 14 -2 19 6 23 44 3 27 11 53 18 60 7 7 12 20 12 30 0
15 5 17 28 12 15 -4 37 -17 49 -28z m288 -49 c15 -28 17 -39 8 -48 -20 -20
-53 17 -53 58 0 44 18 40 45 -10z m337 -106 c48 -21 73 -45 63 -61 -5 -8 -12
-7 -23 3 -10 8 -36 21 -59 28 -24 7 -43 13 -43 15 0 6 12 34 15 34 2 0 23 -8
47 -19z m-286 -34 c7 -7 -65 -19 -76 -12 -22 14 -7 24 30 21 23 -2 43 -6 46
-9z m237 -30 c36 -16 46 -30 29 -41 -18 -11 -80 7 -108 30 -28 23 -28 24 -10
39 16 12 22 13 35 2 9 -7 33 -20 54 -30z"/>
<path d="M4485 4390 c-3 -5 -1 -10 4 -10 6 0 11 5 11 10 0 6 -2 10 -4 10 -3 0
-8 -4 -11 -10z"/>
<path d="M2695 9461 c-8 -14 6 -91 17 -91 5 0 8 21 7 46 -3 45 -12 63 -24 45z"/>
<path d="M2526 9355 c-20 -30 -21 -41 -1 -25 9 7 26 10 42 6 23 -5 25 -4 11 4
-10 6 -18 18 -18 25 0 23 -16 18 -34 -10z"/>
<path d="M2550 9176 c0 -33 4 -56 11 -56 7 0 8 -11 4 -30 -5 -23 -3 -30 9 -30
33 0 50 86 22 110 -8 6 -16 21 -18 32 -2 12 -9 23 -15 26 -9 3 -13 -12 -13
-52z"/>
<path d="M2630 9211 c0 -10 7 -24 15 -31 8 -7 15 -22 15 -35 0 -16 6 -21 22
-21 19 1 24 -6 28 -34 8 -52 20 -13 20 64 l0 63 -29 -5 c-16 -2 -32 1 -35 7
-11 18 -36 13 -36 -8z"/>
<path d="M6974 9161 c-42 -25 -61 -51 -46 -60 15 -9 120 -7 130 3 4 4 -2 14
-13 22 -11 8 -19 21 -17 28 4 22 -23 26 -54 7z"/>
<path d="M2717 8990 c-3 -11 -1 -23 4 -26 5 -3 9 6 9 20 0 31 -6 34 -13 6z"/>
<path d="M2461 8905 c0 -11 3 -14 6 -7 3 7 24 12 53 12 27 0 52 5 55 10 4 7
-15 9 -54 8 -54 -3 -61 -5 -60 -23z"/>
<path d="M1945 8620 c-3 -5 -24 -10 -46 -10 -21 0 -39 -4 -39 -9 0 -5 20 -9
45 -9 34 0 48 4 55 19 11 20 -3 28 -15 9z"/>
<path d="M1620 8522 c0 -53 -12 -72 -46 -72 -31 0 -54 -10 -54 -24 0 -7 14
-10 39 -8 33 3 42 0 56 -22 17 -25 17 -28 1 -45 -16 -17 -15 -18 7 -14 18 4
23 10 20 23 -3 10 3 32 11 49 15 27 21 31 59 31 23 0 62 -5 86 -11 42 -9 62
-6 48 8 -4 3 -49 9 -99 12 -64 4 -93 10 -94 19 -1 6 -2 32 -3 57 -1 33 -5 45
-16 45 -11 0 -15 -12 -15 -48z"/>
<path d="M2005 8432 c13 -13 158 -23 176 -11 9 5 -17 9 -68 9 -45 0 -90 3
-100 6 -12 5 -15 4 -8 -4z"/>
<path d="M2470 8430 c-73 -5 -77 -7 -28 -8 31 -1 69 -7 83 -12 20 -8 30 -7 40
4 13 12 10 29 -4 24 -3 -1 -44 -5 -91 -8z"/>
<path d="M2813 8377 c-23 -25 -55 -87 -45 -87 17 1 48 38 59 69 16 43 12 47
-14 18z"/>
<path d="M2228 8366 c-26 -19 -12 -26 59 -26 69 0 85 15 26 25 -21 4 -45 8
-53 10 -8 3 -23 -2 -32 -9z"/>
<path d="M1466 8328 c-18 -26 -21 -42 -5 -33 6 4 13 -2 16 -14 7 -28 18 -27
45 4 12 14 30 25 39 25 35 0 28 18 -9 22 -20 3 -44 8 -53 12 -12 5 -22 0 -33
-16z"/>
<path d="M1679 8311 c7 -5 16 -32 19 -60 6 -62 23 -63 36 -3 10 49 -3 72 -43
72 -19 0 -22 -3 -12 -9z"/>
<path d="M7953 8213 c-18 -7 -33 -18 -33 -23 0 -6 -12 -15 -27 -21 -23 -9 -25
-12 -12 -25 9 -8 32 -15 52 -16 39 -1 48 -12 20 -22 -15 -6 -15 -9 4 -28 35
-34 56 -18 50 40 -3 26 -9 61 -13 78 -9 30 -10 30 -41 17z"/>
<path d="M1335 8162 c-13 -9 -35 -58 -35 -77 0 -31 18 -13 33 32 17 51 17 56
2 45z"/>
<path d="M2366 8113 c-3 -3 -6 -19 -6 -35 l0 -28 73 0 c50 0 67 3 57 10 -8 5
-25 10 -37 10 -12 0 -35 11 -51 25 -16 13 -32 22 -36 18z"/>
<path d="M1240 8043 c0 -46 12 -55 58 -47 23 4 42 9 42 13 0 15 -60 61 -79 61
-16 0 -21 -6 -21 -27z"/>
<path d="M2167 8022 c-24 -11 -25 -15 -13 -28 19 -19 42 -18 50 2 11 29 -6 42
-37 26z"/>
<path d="M1470 8021 c0 -6 -20 -13 -44 -16 -43 -7 -44 -8 -33 -32 10 -22 12
-23 18 -6 3 11 19 20 40 23 22 3 35 11 37 23 2 9 -1 17 -7 17 -6 0 -11 -4 -11
-9z"/>
<path d="M1967 8023 c-4 -3 -7 -26 -7 -50 0 -36 3 -43 19 -43 27 0 46 81 22
92 -21 9 -26 9 -34 1z"/>
<path d="M906 8011 c-3 -5 1 -12 10 -15 25 -10 34 -7 34 9 0 16 -35 21 -44 6z"/>
<path d="M2105 8010 c3 -5 10 -10 16 -10 5 0 9 5 9 10 0 6 -7 10 -16 10 -8 0
-12 -4 -9 -10z"/>
<path d="M1146 7982 c-7 -12 15 -92 26 -92 15 0 21 28 14 65 -6 32 -28 47 -40
27z"/>
<path d="M1846 7922 c-5 -48 -11 -61 -26 -65 -23 -6 -27 -35 -5 -43 8 -4 15
-12 15 -20 0 -21 28 -17 35 5 11 35 10 160 -1 171 -8 8 -13 -5 -18 -48z"/>
<path d="M1246 7894 c-9 -24 -7 -54 4 -54 6 0 10 6 10 13 0 6 3 22 6 35 7 25
-11 31 -20 6z"/>
<path d="M2357 7879 c-12 -44 -8 -121 6 -117 15 5 22 101 9 124 -8 14 -10 13
-15 -7z"/>
<path d="M1656 7853 c-9 -10 -7 -63 3 -63 11 0 20 59 11 65 -4 3 -10 2 -14 -2z"/>
<path d="M8183 7805 c-3 -9 -3 -33 1 -55 5 -33 3 -41 -14 -50 -23 -12 -27 -50
-5 -50 9 0 15 -9 15 -25 0 -15 6 -25 15 -25 20 0 31 66 17 105 -7 19 -9 42 -3
60 9 33 5 55 -10 55 -5 0 -12 -7 -16 -15z"/>
<path d="M845 7759 c-22 -4 -56 -8 -76 -8 -32 -1 -39 -6 -60 -45 -20 -38 -21
-46 -9 -61 13 -16 15 -16 26 0 10 13 21 16 48 11 36 -7 36 -7 36 28 0 47 22
66 76 66 28 0 43 4 39 10 -7 11 -23 11 -80 -1z"/>
<path d="M980 7747 c-33 -11 -35 -15 -32 -49 4 -43 11 -46 54 -20 28 16 30 16
44 -2 8 -11 12 -28 8 -38 -6 -21 4 -58 16 -58 5 0 10 21 12 48 3 39 6 47 23
47 17 0 22 -11 31 -63 6 -34 14 -66 18 -69 3 -3 6 42 6 100 l0 107 -29 0 c-15
0 -48 2 -72 4 -24 3 -60 0 -79 -7z"/>
<path d="M1363 7693 c-26 -17 -29 -38 -11 -80 l11 -28 12 50 c9 44 14 50 38
53 15 2 25 8 22 13 -9 14 -47 10 -72 -8z"/>
<path d="M1728 7692 c-11 -2 -18 -13 -18 -25 l0 -21 22 22 c24 23 23 30 -4 24z"/>
<path d="M2053 7673 c-17 -6 -16 -45 2 -69 13 -18 14 -17 15 19 0 34 2 37 30
37 17 0 33 -7 39 -17 14 -24 14 -7 1 18 -10 18 -56 25 -87 12z"/>
<path d="M955 7638 c-9 -22 4 -43 17 -30 7 7 7 16 0 29 -10 17 -11 17 -17 1z"/>
<path d="M801 7468 c1 -47 3 -57 9 -38 12 36 12 88 0 95 -6 4 -10 -17 -9 -57z"/>
<path d="M1540 7510 c0 -5 20 -10 44 -10 25 0 48 5 51 10 4 6 -13 10 -44 10
-28 0 -51 -4 -51 -10z"/>
<path d="M1145 7414 c-7 -90 -4 -161 16 -384 4 -47 5 41 2 195 -3 154 -7 281
-8 283 -2 2 -6 -40 -10 -94z"/>
<path d="M1370 7489 c0 -5 5 -7 10 -4 6 3 10 8 10 11 0 2 -4 4 -10 4 -5 0 -10
-5 -10 -11z"/>
<path d="M1777 7489 c-10 -6 -25 -8 -33 -5 -8 3 -14 1 -14 -4 0 -6 9 -10 20
-10 10 0 23 -8 29 -17 9 -17 10 -17 16 -1 12 30 2 48 -18 37z"/>
<path d="M2140 7465 c0 -8 5 -15 10 -15 6 0 10 7 10 15 0 8 -4 15 -10 15 -5 0
-10 -7 -10 -15z"/>
<path d="M2235 7460 c-9 -15 4 -30 26 -30 22 0 24 11 7 28 -15 15 -25 15 -33
2z"/>
<path d="M1632 7310 c-8 -13 -23 -20 -42 -20 -31 0 -50 -22 -50 -57 1 -17 1
-17 11 0 20 34 79 15 79 -26 0 -17 -5 -19 -39 -14 -29 4 -41 1 -45 -10 -11
-27 -6 -31 39 -35 36 -2 45 0 45 12 0 9 5 21 12 28 9 9 9 17 -2 36 -10 20 -10
31 0 55 15 37 10 59 -8 31z"/>
<path d="M2134 7288 c-5 -9 -25 -18 -44 -20 -22 -2 -36 -9 -38 -19 -2 -12 6
-15 39 -13 34 1 44 6 51 25 11 28 5 49 -8 27z"/>
<path d="M1723 7263 c3 -16 11 -52 18 -80 11 -44 18 -53 36 -53 12 0 28 -2 36
-5 10 -5 13 1 9 23 -2 16 1 33 7 36 16 10 13 26 -4 26 -8 0 -15 -7 -15 -15 0
-19 -34 -20 -49 -1 -6 8 -8 27 -5 46 5 22 3 35 -7 41 -24 15 -31 10 -26 -18z"/>
<path d="M1456 7204 c-5 -12 -16 -15 -51 -12 -48 3 -51 0 -36 -52 l7 -25 12
23 c13 23 41 29 59 11 7 -7 12 1 16 27 7 41 3 55 -7 28z"/>
<path d="M2126 7175 c-3 -8 -12 -15 -21 -15 -8 0 -15 -4 -15 -10 0 -5 6 -10
14 -10 16 0 46 26 46 41 0 15 -17 10 -24 -6z"/>
<path d="M8116 7121 c-4 -5 -3 -16 0 -25 3 -9 1 -23 -6 -31 -10 -13 -7 -16 19
-21 37 -8 40 -20 7 -28 -26 -6 -56 -31 -56 -46 0 -5 14 -11 31 -15 19 -4 37
-18 49 -37 20 -33 24 -30 35 27 4 22 11 46 17 53 7 8 7 16 0 25 -7 8 -9 29 -5
50 5 33 3 38 -21 47 -34 12 -63 13 -70 1z"/>
<path d="M2110 7100 l-35 -6 39 -8 c39 -7 57 -2 40 12 -5 5 -25 5 -44 2z"/>
<path d="M2210 7061 c0 -42 16 -47 29 -9 14 40 14 38 -9 38 -15 0 -20 -7 -20
-29z"/>
<path d="M1450 6970 c-8 -5 -27 -10 -41 -10 -16 0 -30 -7 -33 -16 -9 -24 -3
-26 29 -10 31 16 52 12 58 -12 3 -10 5 0 6 21 0 20 0 37 -1 37 -2 0 -10 -5
-18 -10z"/>
<path d="M1730 6955 c0 -26 4 -28 34 -16 17 7 16 9 -8 24 -26 17 -26 17 -26
-8z"/>
<path d="M1568 6953 c7 -3 16 -2 19 1 4 3 -2 6 -13 5 -11 0 -14 -3 -6 -6z"/>
<path d="M1805 6950 c-3 -5 -1 -10 4 -10 6 0 11 5 11 10 0 6 -2 10 -4 10 -3 0
-8 -4 -11 -10z"/>
<path d="M1541 6934 c0 -11 3 -14 6 -6 3 7 2 16 -1 19 -3 4 -6 -2 -5 -13z"/>
<path d="M2145 6900 c-3 -5 -1 -10 4 -10 6 0 11 5 11 10 0 6 -2 10 -4 10 -3 0
-8 -4 -11 -10z"/>
<path d="M621 6854 c0 -11 3 -14 6 -6 3 7 2 16 -1 19 -3 4 -6 -2 -5 -13z"/>
<path d="M8030 6800 c0 -5 7 -10 16 -10 8 0 12 5 9 10 -3 6 -10 10 -16 10 -5
0 -9 -4 -9 -10z"/>
<path d="M283 6777 c-10 -16 7 -20 87 -20 86 0 108 6 63 18 -38 11 -144 12
-150 2z"/>
<path d="M1812 6772 c-1 -7 -13 -17 -27 -24 -19 -9 -29 -8 -50 6 -21 14 -25
14 -25 2 0 -8 5 -18 10 -21 6 -3 10 -14 10 -25 0 -16 6 -17 43 -13 23 3 43 7
45 8 2 2 2 20 -1 41 -2 22 -4 33 -5 26z"/>
<path d="M713 6755 c-18 -20 -16 -25 7 -25 13 0 20 7 20 20 0 23 -10 25 -27 5z"/>
<path d="M1632 6739 c-7 -11 -11 -23 -9 -25 7 -7 29 24 25 36 -2 6 -9 1 -16
-11z"/>
<path d="M822 6710 c0 -14 2 -19 5 -12 2 6 2 18 0 25 -3 6 -5 1 -5 -13z"/>
<path d="M1401 6718 c1 -7 -1 -26 -6 -41 -5 -18 -3 -44 5 -68 12 -36 16 -39
52 -39 40 0 44 5 28 30 -6 9 -21 14 -40 12 -36 -4 -39 11 -10 65 19 35 19 38
3 45 -27 10 -34 9 -32 -4z"/>
<path d="M2117 6704 c-21 -11 -32 -12 -48 -4 -25 14 -31 9 -31 -25 0 -34 6
-39 32 -25 12 6 33 9 46 6 27 -7 38 8 32 42 -3 19 -5 19 -31 6z"/>
<path d="M1570 6700 c0 -5 9 -10 20 -10 11 0 20 5 20 10 0 6 -9 10 -20 10 -11
0 -20 -4 -20 -10z"/>
<path d="M8118 6687 c-35 -20 -51 -47 -28 -47 6 0 10 -7 10 -16 0 -10 -6 -14
-15 -10 -9 3 -15 0 -15 -10 0 -12 6 -15 24 -10 18 4 28 1 35 -11 18 -32 32 0
29 65 l-3 60 -37 -21z"/>
<path d="M2230 6659 c0 -5 5 -7 10 -4 6 3 10 8 10 11 0 2 -4 4 -10 4 -5 0 -10
-5 -10 -11z"/>
<path d="M2280 6660 c20 -13 50 -13 50 0 0 6 -15 10 -32 10 -25 0 -29 -3 -18
-10z"/>
<path d="M7870 6645 c0 -8 9 -24 20 -35 11 -11 20 -24 20 -29 0 -28 81 -54 95
-31 7 11 -15 54 -44 88 -23 26 -91 32 -91 7z"/>
<path d="M1620 6642 c0 -6 -14 -15 -31 -21 -41 -14 -33 -37 12 -33 36 4 51 17
46 41 -2 16 -27 28 -27 13z"/>
<path d="M1827 6626 c-7 -18 -18 -18 -59 -1 -14 5 -18 2 -18 -14 0 -17 6 -21
34 -21 23 0 38 -7 49 -22 15 -22 16 -22 15 -3 0 11 -3 34 -7 50 -6 25 -8 27
-14 11z"/>
<path d="M287 6614 c-8 -8 3 -34 14 -34 5 0 9 9 9 20 0 19 -11 26 -23 14z"/>
<path d="M1100 6610 c0 -13 20 -13 40 0 12 8 9 10 -12 10 -16 0 -28 -4 -28
-10z"/>
<path d="M1006 6601 c-8 -12 0 -17 42 -26 29 -6 33 -5 30 12 -4 20 -61 32 -72
14z"/>
<path d="M1169 6603 c-3 -21 4 -70 12 -83 5 -10 8 3 9 38 0 28 -4 52 -10 52
-5 0 -10 -3 -11 -7z"/>
<path d="M486 6579 c-11 -7 -40 -9 -76 -5 -52 6 -58 5 -63 -14 -3 -11 -17 -24
-31 -30 -18 -7 -26 -17 -26 -34 0 -34 33 -52 54 -30 9 8 16 20 16 25 0 17 30
9 42 -11 16 -26 58 -27 58 -2 0 23 19 42 41 42 24 0 46 -38 48 -85 1 -22 5
-62 9 -90 l9 -50 7 50 c15 102 21 120 41 120 21 0 43 -54 44 -107 1 -16 6 -28
11 -28 10 0 12 11 14 93 1 46 2 48 26 43 14 -2 32 -7 42 -11 11 -4 18 0 23 14
7 23 25 27 43 9 9 -9 12 2 12 51 0 55 -2 62 -17 57 -25 -7 -264 -9 -288 -2
-11 3 -28 1 -39 -5z m204 -89 c0 -5 -4 -10 -10 -10 -5 0 -10 5 -10 10 0 6 5
10 10 10 6 0 10 -4 10 -10z"/>
<path d="M1751 6554 c0 -11 3 -14 6 -6 3 7 2 16 -1 19 -3 4 -6 -2 -5 -13z"/>
<path d="M2069 6528 c-8 -15 -6 -18 15 -18 14 0 31 -9 40 -22 16 -22 16 -22
16 14 0 32 -3 36 -31 40 -22 4 -33 0 -40 -14z"/>
<path d="M2260 6535 c0 -10 11 -15 35 -15 24 0 35 5 35 15 0 10 -11 15 -35 15
-24 0 -35 -5 -35 -15z"/>
<path d="M8133 6497 c-4 -7 -21 -18 -37 -25 -34 -15 -20 -32 20 -24 33 6 32
-22 -2 -72 -19 -27 -31 -36 -45 -33 -10 3 -24 -2 -30 -10 -8 -9 -21 -12 -36
-8 -13 3 -23 2 -23 -2 0 -5 -14 -22 -30 -40 -33 -35 -41 -87 -15 -97 8 -3 15
-1 15 4 0 5 23 12 50 16 28 4 50 11 50 16 0 5 7 3 15 -6 17 -17 19 -32 5 -39
-6 -3 -5 -4 2 -3 13 3 15 11 17 68 1 22 5 25 22 21 19 -5 21 -3 17 25 -2 17 0
30 5 29 11 -2 32 78 31 118 -3 66 -4 75 -14 75 -5 0 -13 -6 -17 -13z"/>
<path d="M1182 6470 c0 -14 2 -19 5 -12 2 6 2 18 0 25 -3 6 -5 1 -5 -13z"/>
<path d="M6440 6471 c0 -5 8 -12 17 -15 11 -5 13 -10 6 -17 -8 -8 -17 -8 -31
0 -30 16 -89 14 -96 -4 -4 -12 -11 -13 -31 -5 -37 14 -71 12 -106 -6 -17 -8
-52 -16 -80 -16 -27 -1 -49 -4 -49 -8 0 -3 -51 -4 -112 -3 -163 5 -250 3 -268
-7 -9 -5 -35 -6 -58 -3 -23 3 -47 1 -54 -4 -7 -6 -28 -11 -47 -11 -41 -1 -53
-11 -55 -49 -1 -15 -5 -34 -10 -42 -7 -11 -12 -3 -20 30 -9 34 -16 45 -33 47
-17 3 -24 -3 -29 -22 -3 -14 -9 -26 -13 -27 -91 -8 -109 -14 -67 -25 40 -10
31 -24 -16 -24 -29 0 -51 -8 -75 -26 -39 -29 -39 -33 -13 -67 17 -22 25 -25
45 -17 15 6 27 6 30 0 14 -22 42 -9 51 22 12 39 43 50 51 18 5 -17 12 -21 34
-18 15 3 26 2 24 -1 -2 -3 7 -19 19 -34 25 -31 66 -43 96 -27 22 12 30 3 35
-42 4 -27 -5 -40 -74 -111 -77 -78 -79 -82 -79 -129 -1 -40 3 -51 24 -64 13
-9 24 -25 24 -36 0 -28 30 -68 50 -68 10 0 23 -7 30 -15 7 -8 23 -15 36 -15
13 0 24 -3 24 -8 0 -15 87 -102 102 -102 8 0 23 -9 33 -20 10 -11 22 -20 27
-20 5 0 24 -11 41 -24 18 -14 52 -29 75 -35 24 -5 51 -16 61 -25 10 -9 30 -16
46 -16 16 0 37 -7 47 -17 11 -9 36 -16 63 -17 30 -1 44 -5 41 -13 -8 -20 29
-45 58 -37 14 3 26 10 26 14 0 4 19 11 43 14 23 4 60 13 81 20 26 9 50 11 69
5 32 -9 97 15 105 40 3 10 -3 11 -29 5 -19 -4 -47 -8 -64 -9 -16 -1 -41 -7
-54 -14 -13 -7 -35 -11 -50 -8 -14 3 -34 1 -44 -5 -13 -7 -23 -6 -30 1 -6 6
-21 11 -32 11 -33 0 -38 12 -13 33 14 11 19 20 11 23 -6 3 -23 16 -38 30 -14
13 -32 24 -39 24 -7 0 -25 9 -40 21 -21 17 -24 24 -15 35 6 8 18 14 26 14 22
0 76 30 98 55 11 13 47 31 80 40 33 10 78 23 100 31 64 21 187 25 239 8 49
-17 97 -16 103 2 2 6 -27 26 -64 43 -37 17 -89 42 -116 56 -26 14 -53 25 -60
25 -6 1 -30 9 -52 20 -22 11 -50 19 -62 20 -12 0 -24 4 -27 9 -3 4 -19 11 -36
14 -36 8 -38 20 -7 35 21 10 20 11 -11 11 -19 1 -48 7 -65 15 -18 8 -59 17
-92 21 -176 19 -180 20 -147 53 11 11 24 37 29 58 l9 39 72 0 c39 0 76 5 82
11 6 6 32 9 60 6 46 -4 53 -2 100 36 69 55 96 90 81 105 -19 19 -12 26 31 29
34 2 44 7 46 23 5 25 50 74 80 86 22 9 39 35 29 45 -3 3 -32 7 -65 9 -32 1
-68 8 -80 14 -25 13 -42 14 -42 2z m-1020 -208 c-1 -20 -30 -45 -46 -39 -14 5
-13 9 7 26 25 20 39 25 39 13z m1028 -480 c3 -20 -1 -23 -32 -23 -42 0 -56 18
-30 37 27 20 58 12 62 -14z"/>
<path d="M3673 6458 c-18 -5 -33 -13 -33 -18 0 -6 -9 -10 -19 -10 -11 0 -23
-5 -26 -10 -4 -6 -15 -10 -25 -8 -10 2 -26 -4 -36 -13 -11 -9 -36 -26 -58 -37
-21 -12 -44 -31 -50 -44 -6 -12 -20 -24 -31 -26 -26 -5 -45 -21 -45 -38 0 -8
6 -14 13 -14 6 -1 25 -11 40 -24 28 -22 28 -23 8 -29 -12 -3 -21 -12 -21 -21
0 -12 5 -13 32 -4 26 9 33 8 44 -7 17 -23 82 -28 105 -8 12 10 23 11 43 3 15
-5 32 -7 37 -4 6 3 19 -2 30 -11 18 -17 18 -19 1 -32 -15 -12 -10 -13 39 -7
43 5 58 2 68 -10 8 -9 26 -16 42 -16 19 0 30 -6 34 -20 3 -11 11 -20 16 -20 6
0 7 -4 4 -10 -3 -5 -1 -10 4 -10 17 0 13 -17 -11 -43 -18 -19 -29 -22 -50 -16
-31 8 -68 2 -68 -12 0 -11 -54 -39 -75 -39 -9 0 -31 -10 -48 -23 -45 -31 -69
-46 -95 -57 -12 -5 -25 -18 -29 -27 -4 -10 -14 -24 -24 -31 -10 -6 -21 -27
-24 -45 -4 -17 -12 -38 -17 -44 -13 -16 15 -18 43 -2 28 14 202 15 207 0 4
-13 38 -15 46 -3 7 12 67 8 91 -6 14 -8 17 -14 8 -20 -22 -14 1 -29 54 -37 61
-8 68 -15 76 -73 5 -43 5 -43 -22 -37 -15 3 -42 -1 -61 -9 -25 -10 -40 -11
-54 -4 -13 7 -25 6 -42 -2 -19 -11 -27 -10 -47 3 -22 14 -27 14 -55 -3 -21
-13 -30 -25 -26 -35 4 -10 0 -15 -12 -15 -11 -1 -30 -10 -43 -21 l-25 -20 30
-24 c16 -13 39 -24 52 -25 12 0 22 -5 22 -10 0 -6 16 -10 38 -8 33 3 37 0 36
-19 -1 -20 5 -22 77 -29 64 -5 78 -10 82 -26 5 -18 6 -18 38 1 29 18 34 18 55
5 17 -12 28 -13 43 -5 11 6 31 11 46 11 24 0 85 35 93 53 2 4 12 7 22 7 10 0
21 4 24 8 3 4 28 14 57 22 28 8 57 22 63 32 6 10 14 18 19 18 4 0 29 16 56 35
53 36 117 68 140 69 8 1 16 7 19 14 2 6 9 12 16 12 27 0 48 37 41 73 -7 33 -5
36 22 39 20 2 29 9 31 24 2 12 12 30 23 40 10 9 19 26 19 37 0 15 5 18 23 14
21 -6 22 -3 25 52 2 37 -3 68 -13 87 -8 16 -15 37 -15 47 0 9 -4 17 -9 17 -5
0 -12 7 -15 16 -4 12 -2 15 9 10 18 -6 91 62 97 90 2 10 21 24 46 33 52 19 56
41 7 41 -32 0 -35 3 -35 29 0 16 -5 31 -12 33 -7 3 -13 22 -13 43 0 35 -3 39
-27 40 -32 2 -57 18 -123 79 -57 53 -90 66 -108 43 -21 -27 -72 -24 -135 6
-18 9 -25 8 -32 -2 -4 -8 -13 -10 -20 -6 -27 17 -292 21 -320 5 -9 -5 -24 -1
-40 10 -35 25 -113 29 -137 8 -12 -10 -25 -13 -38 -8 -34 14 -65 11 -65 -6 0
-8 -5 -12 -10 -9 -6 4 -8 11 -5 16 4 5 -7 9 -24 9 -16 0 -36 6 -43 13 -9 10
-22 11 -45 5z"/>
<path d="M1475 6406 c-18 -13 -18 -15 -2 -30 20 -20 37 -13 37 14 0 26 -14 32
-35 16z"/>
<path d="M1572 6394 c3 -25 7 -27 48 -28 41 -1 45 1 49 24 3 24 2 24 -16 7
-25 -22 -38 -22 -64 4 l-20 20 3 -27z"/>
<path d="M1810 6392 c0 -10 22 -32 32 -32 4 0 8 9 8 20 0 13 -7 20 -20 20 -11
0 -20 -4 -20 -8z"/>
<path d="M1400 6378 c0 -7 5 -20 10 -28 8 -12 10 -11 10 7 0 12 -4 25 -10 28
-5 3 -10 0 -10 -7z"/>
<path d="M2240 6370 c0 -12 47 -12 75 0 15 6 8 9 -27 9 -27 1 -48 -3 -48 -9z"/>
<path d="M1484 6299 c-3 -6 -20 -9 -38 -6 -17 2 -39 0 -50 -5 -10 -6 -84 -14
-165 -20 -80 -5 -151 -14 -157 -19 -6 -5 -18 -7 -26 -4 -7 3 -32 1 -53 -4 -23
-5 -31 -9 -18 -10 31 -1 37 -18 12 -31 -19 -11 -20 -13 -5 -28 14 -14 17 -14
36 3 15 13 17 21 9 31 -18 22 25 26 176 15 116 -7 175 -19 204 -38 2 -1 7 -17
11 -35 l8 -33 1 42 c1 50 -18 73 -62 73 -36 0 -65 15 -53 27 4 4 90 12 191 18
153 8 180 12 168 23 -9 9 -18 10 -26 4 -13 -11 -122 -10 -133 1 -10 10 -22 9
-30 -4z"/>
<path d="M1910 6290 c-20 -12 -10 -19 14 -10 11 3 15 9 10 13 -6 3 -16 2 -24
-3z"/>
<path d="M1815 6280 c3 -5 12 -10 20 -10 8 0 17 5 20 10 4 6 -5 10 -20 10 -15
0 -24 -4 -20 -10z"/>
<path d="M2060 6280 c0 -5 7 -10 16 -10 8 0 12 5 9 10 -3 6 -10 10 -16 10 -5
0 -9 -4 -9 -10z"/>
<path d="M2110 6270 c0 -5 7 -7 15 -4 8 4 15 8 15 10 0 2 -7 4 -15 4 -8 0 -15
-4 -15 -10z"/>
<path d="M2220 6270 c-12 -8 -9 -10 13 -10 16 0 26 4 22 10 -8 12 -16 12 -35
0z"/>
<path d="M915 6215 c-22 -18 -25 -25 -13 -25 9 0 19 -6 21 -12 8 -18 27 10 27
40 0 27 2 27 -35 -3z"/>
<path d="M810 6190 c-8 -5 -25 -10 -37 -10 -12 0 -27 -9 -33 -20 -8 -16 -8
-20 4 -20 8 0 18 5 21 10 3 6 19 10 34 10 26 0 51 16 51 32 0 11 -22 10 -40
-2z"/>
<path d="M1074 6155 c-20 -30 -14 -41 15 -26 16 9 26 8 46 -5 29 -19 33 -6 9
31 -21 32 -49 32 -70 0z"/>
<path d="M660 6120 c-12 -16 -17 -30 -13 -30 5 0 22 14 38 30 22 22 25 30 13
30 -9 0 -26 -13 -38 -30z"/>
<path d="M1216 6141 c-10 -16 5 -41 25 -41 14 0 19 7 19 25 0 18 -5 25 -19 25
-11 0 -22 -4 -25 -9z"/>
<path d="M7827 6116 c-15 -12 -15 -15 -3 -25 11 -9 20 -10 35 -1 25 13 27 26
5 34 -19 7 -15 8 -37 -8z"/>
<path d="M7720 6110 c0 -5 5 -10 10 -10 6 0 10 5 10 10 0 6 -4 10 -10 10 -5 0
-10 -4 -10 -10z"/>
<path d="M1271 6087 c-1 -17 -7 -18 -50 -12 -28 4 -51 3 -55 -3 -7 -12 92 -22
230 -22 62 0 148 -5 191 -10 275 -35 281 -37 307 -80 9 -16 21 -65 25 -107 l8
-78 2 68 c1 75 -14 150 -34 167 -18 15 -286 48 -462 56 -128 6 -153 9 -156 23
-4 13 -5 12 -6 -2z"/>
<path d="M686 6062 c-45 -27 -95 -145 -132 -312 -7 -36 -20 -81 -28 -102 -8
-20 -18 -60 -21 -90 -7 -59 -22 -124 -36 -150 -13 -26 -11 -31 9 -23 9 5 37
11 62 15 45 7 45 7 8 9 -20 0 -39 5 -42 9 -3 4 -1 28 4 53 5 24 15 69 21 99
25 122 73 306 95 362 22 56 40 80 89 114 31 22 6 36 -29 16z"/>
<path d="M963 6073 c9 -2 23 -2 30 0 6 3 -1 5 -18 5 -16 0 -22 -2 -12 -5z"/>
<path d="M1088 6073 c6 -2 18 -2 25 0 6 3 1 5 -13 5 -14 0 -19 -2 -12 -5z"/>
<path d="M6051 6044 c0 -11 3 -14 6 -6 3 7 2 16 -1 19 -3 4 -6 -2 -5 -13z"/>
<path d="M541 6018 c0 -7 4 -22 9 -33 8 -19 9 -19 9 3 1 12 1 25 2 29 0 4 -4
9 -10 11 -6 2 -11 -2 -10 -10z"/>
<path d="M2345 6020 c-3 -5 1 -10 9 -10 8 0 18 5 21 10 3 6 -1 10 -9 10 -8 0
-18 -4 -21 -10z"/>
<path d="M2120 5970 c0 -13 40 -13 60 0 11 7 5 10 -22 10 -21 0 -38 -4 -38
-10z"/>
<path d="M3270 5887 c0 -18 28 -42 37 -33 9 8 -9 38 -25 44 -7 2 -12 -3 -12
-11z"/>
<path d="M1899 5698 c-16 -59 -18 -368 -2 -368 6 0 15 9 18 20 7 21 25 26 41
10 21 -21 128 -12 239 20 61 18 122 35 137 37 15 3 33 12 40 21 11 13 11 15
-2 10 -8 -3 -42 -13 -75 -22 -33 -10 -68 -22 -77 -27 -10 -5 -28 -9 -42 -9
-13 0 -40 -7 -59 -15 -45 -19 -137 -20 -161 -2 -14 10 -17 23 -14 50 2 20 0
37 -4 37 -4 0 -8 -5 -8 -12 0 -9 -3 -9 -12 0 -12 12 -13 194 -2 260 9 46 -3
40 -17 -10z"/>
<path d="M976 5431 c5 -5 52 -12 104 -15 52 -3 142 -9 198 -14 160 -11 132 1
-45 20 -182 19 -271 22 -257 9z"/>
<path d="M1425 5390 c11 -5 36 -9 55 -9 28 0 31 2 15 9 -11 5 -36 9 -55 9 -28
0 -31 -2 -15 -9z"/>
<path d="M1528 5373 c7 -3 16 -2 19 1 4 3 -2 6 -13 5 -11 0 -14 -3 -6 -6z"/>
<path d="M1575 5360 c27 -12 35 -12 35 0 0 6 -12 10 -27 9 -25 0 -26 -1 -8 -9z"/>
<path d="M1745 5322 c36 -17 105 -25 105 -13 0 6 -13 11 -29 11 -16 0 -44 2
-62 5 -25 4 -29 3 -14 -3z"/>
<path d="M1860 5272 c0 -10 -5 -23 -12 -30 -15 -15 0 -16 35 -3 18 7 32 5 56
-10 35 -21 87 -96 96 -140 11 -48 23 -33 14 16 -10 55 -56 114 -119 155 -54
35 -70 37 -70 12z"/>
<path d="M970 5083 c-98 -14 -145 -30 -178 -59 -20 -17 -50 -38 -66 -46 -27
-14 -32 -13 -70 8 -39 22 -49 23 -253 21 -278 -3 -268 -20 15 -27 187 -4 211
-7 236 -25 16 -11 37 -25 48 -31 11 -6 33 -24 50 -40 l30 -29 -7 48 c-13 87 4
98 243 157 77 19 41 37 -48 23z"/>
<path d="M14 4995 c-5 -11 -1 -21 9 -27 10 -5 17 -17 17 -26 0 -13 8 -9 30 15
36 39 37 42 5 35 -14 -2 -32 1 -40 8 -12 10 -16 9 -21 -5z"/>
<path d="M1164 4936 c-11 -8 -37 -18 -58 -21 -37 -7 -96 -48 -96 -67 0 -5 9
-7 20 -3 18 6 19 3 13 -27 -3 -18 -10 -41 -14 -50 -5 -9 -9 -25 -9 -35 1 -10
11 1 24 27 13 25 54 77 90 115 36 39 66 71 66 73 0 6 -18 0 -36 -12z"/>
<path d="M120 4905 c-7 -8 -18 -15 -25 -15 -6 0 -20 -9 -30 -20 -25 -28 -45
-25 -45 7 0 14 -3 24 -6 21 -8 -8 7 -198 16 -198 4 0 10 25 13 56 8 77 52 128
120 139 26 4 47 11 47 16 0 15 -77 10 -90 -6z"/>
<path d="M1288 4904 c-18 -17 -5 -24 43 -24 66 0 81 -9 117 -72 54 -96 66
-209 30 -277 -30 -56 -58 -81 -101 -88 -98 -16 -171 41 -199 154 -14 58 -16
63 -17 31 -1 -21 8 -61 19 -90 26 -67 95 -119 168 -126 44 -4 52 -1 108 42 83
62 99 100 99 233 -1 94 -3 104 -25 129 -46 49 -219 112 -242 88z m234 -119
c12 -16 9 -35 -6 -35 -7 0 -16 8 -19 18 -2 9 -8 26 -13 37 -7 19 -6 19 12 5
10 -8 22 -19 26 -25z"/>
<path d="M330 4884 c0 -12 3 -14 13 -6 6 5 21 12 32 15 13 3 9 5 -12 6 -24 1
-33 -3 -33 -15z"/>
<path d="M518 4883 c6 -2 18 -2 25 0 6 3 1 5 -13 5 -14 0 -19 -2 -12 -5z"/>
<path d="M1240 4860 c-28 -21 -25 -32 8 -23 13 3 22 13 22 24 0 23 1 23 -30
-1z"/>
<path d="M3770 4817 c0 -7 9 -13 20 -14 11 -1 20 4 20 13 0 8 -9 14 -20 14
-11 0 -20 -6 -20 -13z"/>
<path d="M700 4790 c7 -14 20 -36 30 -50 9 -14 22 -44 28 -67 15 -50 32 -65
32 -27 0 31 -49 121 -81 150 l-22 19 13 -25z"/>
<path d="M1156 4753 c-4 -9 -2 -21 4 -27 7 -7 10 -2 10 17 0 31 -5 34 -14 10z"/>
<path d="M322 4730 c0 -14 2 -19 5 -12 2 6 2 18 0 25 -3 6 -5 1 -5 -13z"/>
<path d="M320 4650 c0 -25 4 -39 10 -35 6 3 10 19 10 35 0 16 -4 32 -10 35 -6
4 -10 -10 -10 -35z"/>
<path d="M1966 4621 c-5 -7 3 -11 19 -11 15 0 36 -5 48 -11 20 -10 20 -10 7 4
-20 21 -66 32 -74 18z"/>
<path d="M1898 4613 c7 -3 16 -2 19 1 4 3 -2 6 -13 5 -11 0 -14 -3 -6 -6z"/>
<path d="M1834 4586 c-10 -8 -16 -17 -13 -20 3 -3 14 3 24 14 21 23 17 26 -11
6z"/>
<path d="M783 4500 c0 -47 2 -66 4 -42 2 23 2 61 0 85 -2 23 -4 4 -4 -43z"/>
<path d="M1785 4540 c-3 -5 -1 -10 4 -10 6 0 11 5 11 10 0 6 -2 10 -4 10 -3 0
-8 -4 -11 -10z"/>
<path d="M5000 4530 c0 -5 5 -10 10 -10 6 0 10 5 10 10 0 6 -4 10 -10 10 -5 0
-10 -4 -10 -10z"/>
<path d="M5005 4500 c-3 -6 -11 -8 -16 -5 -14 9 -10 -17 5 -37 7 -10 21 -18
30 -18 21 0 20 9 -1 26 -17 13 -17 13 0 14 10 0 17 5 15 12 -6 16 -25 21 -33
8z"/>
<path d="M1721 4477 c-12 -13 -31 -41 -42 -63 -23 -45 -37 -148 -21 -158 7 -4
13 18 17 61 6 65 30 127 63 166 22 26 9 21 -17 -6z"/>
<path d="M1990 4446 c0 -3 14 -14 30 -26 35 -25 40 -20 8 10 -20 18 -38 26
-38 16z"/>
<path d="M4960 4438 c1 -23 29 -51 45 -45 9 4 15 1 15 -8 0 -21 19 -29 26 -10
7 17 -16 43 -53 64 -28 14 -33 14 -33 -1z"/>
<path d="M927 4416 c-4 -10 -7 -25 -6 -34 0 -11 4 -9 10 7 5 13 8 29 6 35 -2
5 -6 2 -10 -8z"/>
<path d="M2060 4376 c0 -8 4 -17 9 -20 5 -4 7 3 4 14 -6 23 -13 26 -13 6z"/>
<path d="M3500 4330 c0 -5 7 -10 15 -10 8 0 15 5 15 10 0 6 -7 10 -15 10 -8 0
-15 -4 -15 -10z"/>
<path d="M1234 4311 c-30 -13 -54 -55 -54 -94 0 -39 29 -76 80 -102 67 -35
150 21 150 101 0 60 -113 122 -176 95z m141 -54 c24 -34 18 -70 -14 -102 -26
-24 -35 -27 -72 -22 -30 4 -50 15 -70 37 -45 48 -35 100 23 125 26 11 38 10
75 -2 24 -8 50 -25 58 -36z"/>
<path d="M1892 4297 c-12 -13 -22 -30 -22 -38 1 -8 8 -1 16 14 14 26 19 28 52
22 47 -8 88 -47 105 -98 17 -51 40 -63 30 -16 -8 41 -58 116 -81 123 -63 17
-78 16 -100 -7z"/>
<path d="M780 4202 c0 -96 -1 -101 -26 -121 -36 -28 -106 -48 -204 -57 -125
-11 -162 -9 -177 13 -11 15 -15 15 -22 4 -14 -21 -102 -7 -177 28 -35 17 -64
26 -64 21 0 -11 40 -50 52 -50 4 0 8 -7 8 -16 0 -11 -6 -15 -20 -11 -11 3 -20
1 -20 -4 0 -5 6 -9 13 -10 6 0 70 -6 140 -12 71 -7 134 -9 140 -5 7 4 33 8 58
8 43 0 107 9 209 30 25 5 59 12 75 15 l31 6 -3 126 c-3 152 -13 178 -13 35z"/>
<path d="M5700 4280 c0 -5 5 -10 10 -10 6 0 10 5 10 10 0 6 -4 10 -10 10 -5 0
-10 -4 -10 -10z"/>
<path d="M1709 4273 c-1 -5 -3 -19 -6 -33 -7 -46 -19 -285 -15 -307 8 -45 19
-22 20 45 1 37 5 120 9 185 3 64 3 117 -1 117 -3 0 -7 -3 -7 -7z"/>
<path d="M1851 4224 c0 -11 3 -14 6 -6 3 7 2 16 -1 19 -3 4 -6 -2 -5 -13z"/>
<path d="M1641 4211 c-6 -10 -14 -83 -17 -161 -8 -158 -16 -173 -61 -120 -26
32 -28 32 -87 25 -75 -9 -242 -9 -486 -1 -148 6 -181 4 -165 -5 31 -20 564
-32 650 -15 46 9 71 -9 81 -60 5 -26 -1 -35 -51 -82 -53 -50 -115 -86 -168
-98 -95 -21 -237 -27 -361 -15 -72 8 -165 15 -206 16 -90 3 -190 19 -219 34
-14 8 -21 21 -21 41 0 43 -19 77 -49 88 -43 17 -112 30 -181 37 -36 3 -82 8
-103 10 -20 3 -37 2 -37 -3 0 -8 186 -42 255 -46 52 -4 72 -22 96 -89 l22 -62
151 -24 c83 -13 233 -28 334 -33 173 -10 187 -9 250 11 37 11 87 26 112 33 25
6 60 20 78 30 18 10 39 18 47 18 8 0 15 6 15 14 0 8 20 32 43 53 79 69 86 90
93 267 3 86 3 156 0 156 -3 0 -10 -9 -15 -19z"/>
<path d="M1837 4184 c-4 -4 -7 -19 -6 -33 l0 -26 10 24 c10 26 8 47 -4 35z"/>
<path d="M2150 4155 c0 -3 6 -18 14 -33 7 -15 19 -70 25 -122 7 -52 14 -102
16 -110 3 -17 8 102 5 142 -2 36 -35 121 -49 126 -6 2 -11 1 -11 -3z"/>
<path d="M2073 4062 c-2 -52 1 -72 7 -62 11 18 13 140 3 140 -5 0 -9 -35 -10
-78z"/>
<path d="M877 4114 c-9 -9 4 -35 14 -28 5 3 9 12 9 20 0 14 -12 19 -23 8z"/>
<path d="M2553 4073 c9 -2 23 -2 30 0 6 3 -1 5 -18 5 -16 0 -22 -2 -12 -5z"/>
<path d="M840 4060 c-23 -7 -23 -8 -3 -9 12 -1 25 4 28 9 3 6 5 10 3 9 -2 -1
-14 -5 -28 -9z"/>
<path d="M778 3953 c7 -3 16 -2 19 1 4 3 -2 6 -13 5 -11 0 -14 -3 -6 -6z"/>
<path d="M3230 3900 c0 -13 5 -20 13 -17 6 2 12 10 12 17 0 7 -6 15 -12 18 -8
2 -13 -5 -13 -18z"/>
<path d="M1697 3877 c-3 -8 -1 -20 4 -28 6 -10 9 -7 9 14 0 29 -5 35 -13 14z"/>
<path d="M2039 3828 c-6 -12 -17 -26 -23 -30 -8 -6 -8 -8 0 -8 13 0 48 49 41
57 -3 2 -11 -6 -18 -19z"/>
<path d="M2185 3810 c-4 -12 -5 -24 -2 -27 3 -2 8 5 12 17 4 12 5 24 2 27 -3
2 -8 -5 -12 -17z"/>
<path d="M1711 3794 c0 -11 3 -14 6 -6 3 7 2 16 -1 19 -3 4 -6 -2 -5 -13z"/>
<path d="M1918 3779 c14 -12 57 -18 71 -10 9 6 -2 10 -32 12 -25 2 -43 1 -39
-2z"/>
<path d="M1725 3750 c7 -26 35 -62 35 -45 0 6 -9 24 -21 40 -19 28 -20 28 -14
5z"/>
<path d="M1770 3669 c5 -35 0 -41 -30 -37 -16 3 -30 1 -30 -4 0 -4 27 -8 60
-8 33 0 60 3 59 8 0 4 -14 18 -30 31 -20 15 -30 19 -29 10z"/>
<path d="M1550 3660 c0 -5 5 -10 11 -10 5 0 7 5 4 10 -3 6 -8 10 -11 10 -2 0
-4 -4 -4 -10z"/>
<path d="M1598 3633 c7 -3 16 -2 19 1 4 3 -2 6 -13 5 -11 0 -14 -3 -6 -6z"/>
<path d="M1648 3633 c6 -2 18 -2 25 0 6 3 1 5 -13 5 -14 0 -19 -2 -12 -5z"/>
<path d="M6645 3620 c3 -5 8 -10 11 -10 2 0 4 5 4 10 0 6 -5 10 -11 10 -5 0
-7 -4 -4 -10z"/>
<path d="M5599 3469 c-18 -26 -20 -34 -10 -56 11 -24 13 -24 30 -9 9 9 44 21
77 27 32 7 64 16 69 21 6 6 5 9 -5 7 -26 -5 -88 11 -100 26 -19 23 -36 18 -61
-16z"/>
<path d="M5450 3219 c0 -5 5 -7 10 -4 6 3 10 8 10 11 0 2 -4 4 -10 4 -5 0 -10
-5 -10 -11z"/>
<path d="M5372 3048 c-7 -7 -12 -20 -12 -30 0 -10 -4 -18 -10 -18 -20 0 -9
-21 17 -31 14 -5 32 -17 40 -27 11 -15 12 -11 9 28 -5 53 -16 90 -25 90 -4 0
-12 -5 -19 -12z"/>
<path d="M6578 3023 c-17 -4 -31 -30 -23 -43 2 -4 23 -2 45 3 28 8 40 16 38
27 -3 15 -30 22 -60 13z"/>
<path d="M5315 2990 c3 -5 8 -10 11 -10 2 0 4 5 4 10 0 6 -5 10 -11 10 -5 0
-7 -4 -4 -10z"/>
<path d="M6600 2850 c0 -11 4 -20 9 -20 5 0 13 -9 16 -20 7 -23 35 -27 35 -6
0 7 -7 19 -15 26 -8 7 -15 19 -15 26 0 8 -7 14 -15 14 -8 0 -15 -9 -15 -20z"/>
<path d="M5260 2800 c0 -19 3 -21 12 -12 9 9 9 15 0 24 -9 9 -12 7 -12 -12z"/>
<path d="M7211 2807 c-31 -15 -37 -33 -15 -41 20 -8 64 19 64 39 0 18 -17 19
-49 2z"/>
<path d="M7200 2730 c0 -5 5 -10 11 -10 5 0 7 5 4 10 -3 6 -8 10 -11 10 -2 0
-4 -4 -4 -10z"/>
<path d="M6362 2673 c-12 -22 7 -53 32 -53 13 0 17 7 14 32 -3 38 -31 50 -46
21z"/>
<path d="M7170 2680 c0 -5 7 -10 15 -10 8 0 15 5 15 10 0 6 -7 10 -15 10 -8 0
-15 -4 -15 -10z"/>
<path d="M6447 2650 c-4 -17 -2 -18 14 -9 11 5 17 14 14 20 -10 15 -22 10 -28
-11z"/>
<path d="M7071 2642 c-11 -21 2 -42 26 -42 17 0 17 35 -1 49 -12 10 -17 8 -25
-7z"/>
<path d="M6996 2524 c-20 -20 -21 -64 -2 -64 8 0 17 -8 19 -17 3 -10 5 -5 6
12 0 17 8 40 16 51 23 34 -9 49 -39 18z"/>
<path d="M3150 2501 c0 -6 5 -13 10 -16 6 -3 10 1 10 9 0 9 -4 16 -10 16 -5 0
-10 -4 -10 -9z"/>
<path d="M6590 2473 c0 -25 15 -38 25 -22 4 6 0 18 -9 27 -15 15 -16 15 -16
-5z"/>
<path d="M6929 2427 c-27 -23 -56 -83 -46 -94 4 -3 11 6 16 21 7 16 18 26 31
26 23 0 33 18 28 49 -3 21 -3 21 -29 -2z"/>
<path d="M6337 2413 c-4 -3 -7 -15 -7 -26 0 -19 -1 -19 -26 -2 -43 28 -52 4
-21 -54 15 -27 27 -51 27 -54 0 -3 -12 -8 -26 -11 -37 -10 -21 -21 29 -21 23
-1 50 -4 59 -9 11 -5 20 -2 27 12 13 25 3 55 -15 48 -9 -3 -14 2 -14 13 0 10
-7 24 -15 31 -19 16 -19 34 0 50 8 7 12 16 9 21 -6 11 -18 12 -27 2z"/>
<path d="M2940 2357 l-45 -21 42 -4 c29 -2 43 -8 46 -20 3 -13 7 -10 16 12 12
29 9 57 -6 55 -4 0 -28 -10 -53 -22z"/>
<path d="M7259 2335 c-8 -50 -6 -75 7 -75 9 0 14 10 14 28 0 26 -18 67 -21 47z"/>
<path d="M5980 2317 c0 -7 7 -22 15 -33 12 -16 14 -17 15 -2 0 23 -11 48 -21
48 -5 0 -9 -6 -9 -13z"/>
<path d="M6405 2320 c-3 -5 -1 -10 4 -10 6 0 11 5 11 10 0 6 -2 10 -4 10 -3 0
-8 -4 -11 -10z"/>
<path d="M2848 2313 c7 -3 16 -2 19 1 4 3 -2 6 -13 5 -11 0 -14 -3 -6 -6z"/>
<path d="M2968 2278 c-4 -10 -5 -25 -2 -33 4 -8 -2 -44 -11 -79 -10 -36 -15
-74 -12 -86 3 -12 0 -50 -8 -85 -13 -64 -8 -287 8 -312 4 -6 9 -48 11 -93 3
-54 9 -87 19 -98 9 -9 19 -42 23 -72 3 -30 18 -84 31 -119 14 -35 29 -91 33
-124 4 -35 13 -64 22 -71 19 -14 42 -65 62 -139 9 -31 20 -57 25 -57 12 0 56
-88 72 -144 8 -29 21 -51 32 -55 23 -9 42 -41 82 -138 10 -23 29 -52 42 -65
14 -13 34 -41 45 -62 17 -33 18 -42 7 -62 -8 -15 -21 -24 -36 -24 -19 0 -28
10 -43 46 -11 25 -20 52 -20 59 0 8 -23 42 -51 77 -59 72 -73 102 -65 139 4
22 -1 31 -32 53 -40 28 -62 57 -67 90 -8 48 -33 98 -56 110 -21 10 -25 21 -29
76 -6 72 -24 108 -57 116 -25 7 -27 17 -23 96 1 41 -2 52 -27 76 -26 26 -28
34 -28 106 0 73 -1 78 -31 104 l-31 28 -2 -55 c-1 -29 -5 -61 -10 -69 -7 -13
-11 -11 -24 9 -9 13 -19 42 -23 64 l-7 40 -14 -32 c-10 -25 -19 -33 -39 -33
-20 0 -24 -4 -19 -19 3 -11 1 -22 -5 -26 -16 -10 -12 -21 15 -35 21 -11 25
-20 25 -61 0 -26 -4 -50 -9 -53 -9 -6 -7 -37 5 -122 4 -26 0 -54 -10 -78 -18
-43 -21 -93 -6 -98 8 -3 10 -30 9 -143 0 -16 1 -76 3 -132 l3 -102 57 -27 c32
-15 61 -25 64 -21 8 7 84 -32 84 -44 0 -9 103 -59 120 -59 4 0 10 9 13 20 3
14 14 20 31 20 23 0 26 4 26 35 0 74 66 25 77 -57 3 -21 10 -41 14 -44 5 -3 9
-14 9 -24 0 -21 34 -39 149 -81 59 -21 64 -21 76 -6 20 28 52 20 85 -22 19
-24 45 -42 69 -50 49 -14 51 -14 51 3 0 26 -35 76 -52 76 -11 0 -27 19 -43 50
-33 66 -33 88 3 92 25 3 27 6 25 41 -2 21 -12 52 -24 68 -12 17 -24 55 -28 87
-10 76 -29 109 -106 185 -53 52 -65 70 -65 96 0 25 -12 44 -60 93 -33 33 -60
68 -60 77 -1 34 -63 141 -75 129 -15 -15 37 -178 57 -178 10 0 33 -56 42 -102
4 -21 19 -50 34 -65 46 -47 79 -96 86 -129 4 -16 26 -52 49 -80 57 -66 73 -92
81 -137 4 -21 10 -45 13 -53 8 -22 -17 -17 -53 11 -20 16 -48 57 -74 109 -23
47 -48 87 -55 90 -16 6 -59 86 -69 129 -4 16 -20 41 -36 56 -17 15 -39 52 -50
83 -10 30 -34 82 -52 114 -20 38 -35 81 -39 119 -4 32 -14 64 -21 70 -17 12
-38 68 -38 100 0 12 -11 57 -25 99 -14 42 -25 96 -25 120 0 24 -7 57 -15 72
-9 17 -15 56 -15 96 0 37 -4 69 -10 73 -12 7 -11 278 2 325 11 40 7 155 -4
128z m-102 -928 c7 -9 18 -54 23 -100 7 -60 14 -88 26 -97 10 -6 21 -31 26
-55 18 -92 7 -108 -46 -66 -26 21 -27 24 -21 89 6 57 4 72 -13 100 -24 40 -36
108 -26 146 5 19 9 23 13 13 2 -8 11 -22 18 -30z m149 -442 c8 -15 15 -40 15
-56 0 -39 18 -89 35 -95 36 -14 63 -137 30 -137 -17 0 -55 78 -55 112 0 33
-47 88 -75 88 -41 0 -95 31 -95 54 0 32 14 47 46 50 23 2 30 9 32 30 l3 27 25
-23 c14 -13 31 -35 39 -50z m-77 -196 c14 -9 22 -24 22 -41 0 -25 -3 -27 -44
-25 -60 2 -69 9 -60 47 3 18 8 35 10 39 5 8 44 -2 72 -20z"/>
<path d="M2797 2240 c-20 -11 -45 -20 -54 -21 -24 -1 -96 -41 -100 -56 -3 -8
10 -7 44 4 26 9 63 18 82 21 l34 5 -6 -43 c-3 -23 -7 -44 -10 -46 -2 -2 -28
-6 -58 -8 -85 -7 -116 -16 -140 -42 -12 -13 -27 -24 -32 -24 -5 0 -22 -11 -39
-25 -16 -14 -35 -25 -42 -25 -21 0 -75 -45 -106 -89 -17 -22 -26 -41 -22 -41
9 0 60 22 94 41 10 5 24 9 31 9 8 0 19 11 25 24 18 39 117 51 117 14 0 -9 4
-20 8 -24 4 -4 7 -15 7 -25 0 -16 -8 -18 -72 -15 -69 3 -136 -13 -139 -32 -1
-4 -2 -32 -3 -63 -1 -34 -9 -67 -20 -83 -11 -17 -19 -58 -24 -119 -6 -81 -9
-92 -27 -95 -27 -5 -65 -42 -65 -63 0 -9 13 -22 31 -29 27 -12 30 -17 25 -43
-3 -16 -6 -37 -6 -47 0 -12 -14 -22 -45 -33 -44 -14 -46 -14 -64 9 -10 13 -22
24 -25 24 -14 0 -54 -108 -60 -157 -2 -28 -14 -70 -26 -93 -11 -22 -19 -44
-16 -48 13 -21 115 -82 129 -76 21 8 67 -24 67 -46 0 -16 63 -65 126 -98 19
-10 20 -9 14 40 -9 66 8 88 70 91 l45 2 0 -60 c-1 -34 -8 -76 -18 -97 l-17
-36 64 -36 c35 -20 67 -36 70 -36 3 0 6 13 6 28 0 15 4 32 9 37 6 6 4 46 -4
105 -13 83 -13 97 0 117 11 16 12 28 6 40 -5 10 -15 44 -22 76 -10 47 -10 65
0 93 8 21 9 48 5 71 -5 21 -8 62 -9 92 0 44 4 56 21 68 19 12 21 18 12 51 -21
81 -21 93 1 123 17 23 22 44 22 86 0 58 18 107 41 115 26 9 68 1 88 -17 17
-15 23 -16 29 -6 11 17 23 139 15 152 -11 18 -31 -9 -38 -51 -7 -44 -14 -51
-44 -43 -26 6 -28 32 -7 74 19 36 14 48 -19 42 -18 -4 -27 1 -36 17 -14 25 5
62 42 81 43 22 68 53 75 92 3 21 12 41 20 44 8 3 12 12 8 21 -3 10 6 26 25 43
16 15 30 35 30 43 0 23 -77 21 -123 -4z m-207 -590 c0 -11 -4 -20 -9 -20 -6 0
-9 9 -8 20 1 11 5 20 9 20 4 0 8 -9 8 -20z m-8 -156 c7 -62 -39 -95 -84 -60
-21 15 -22 26 -7 60 11 22 21 27 75 35 7 0 14 -15 16 -35z m-24 -198 c8 -66
-19 -105 -67 -98 -35 5 -46 28 -37 76 7 36 36 56 76 53 19 -2 26 -8 28 -31z
m-274 -137 c43 -33 33 -99 -14 -99 -42 0 -60 23 -53 68 9 55 26 63 67 31z
m258 -36 c25 -23 24 -84 -3 -109 -13 -12 -18 -25 -15 -40 4 -13 2 -26 -4 -29
-5 -3 -10 1 -10 10 0 11 -6 15 -19 10 -28 -9 -54 39 -52 94 2 60 12 70 75 80
5 0 18 -6 28 -16z"/>
<path d="M2581 2216 c-53 -21 -78 -46 -47 -46 16 0 126 58 126 66 0 8 -26 2
-79 -20z"/>
<path d="M7261 2211 c0 -8 -8 -19 -16 -25 -9 -6 -18 -27 -21 -47 -6 -33 -3
-38 25 -52 28 -14 33 -14 38 -1 3 8 1 34 -5 57 -6 23 -13 51 -16 62 -2 11 -4
14 -5 6z"/>
<path d="M6222 2143 c15 -15 31 -23 35 -19 4 4 -3 16 -17 26 -37 29 -49 24
-18 -7z"/>
<path d="M7600 2156 c0 -2 7 -9 15 -16 12 -10 15 -10 15 4 0 9 -7 16 -15 16
-8 0 -15 -2 -15 -4z"/>
<path d="M2352 2135 c-32 -14 -47 -34 -40 -55 3 -11 121 41 132 59 10 16 -52
13 -92 -4z"/>
<path d="M6660 2110 c-23 -18 -24 -20 -4 -20 20 0 44 17 44 32 0 13 -13 9 -40
-12z"/>
<path d="M6142 2098 c2 -13 11 -24 21 -26 22 -4 35 27 16 39 -25 16 -41 10
-37 -13z"/>
<path d="M7553 2089 c24 -58 33 -67 80 -80 27 -7 63 -23 80 -36 17 -13 37 -23
44 -23 8 0 39 -13 71 -29 31 -15 67 -32 79 -35 13 -4 48 -23 80 -42 31 -19 65
-34 74 -34 10 0 19 -3 21 -7 3 -8 81 -48 151 -77 64 -27 39 5 -29 38 -125 61
-144 71 -210 109 -23 13 -52 27 -65 30 -13 4 -46 21 -73 39 -58 39 -44 31
-179 99 -130 65 -132 65 -124 48z"/>
<path d="M7770 2075 c0 -2 20 -16 45 -30 49 -29 87 -30 44 -1 -26 16 -89 38
-89 31z"/>
<path d="M2423 2051 c-23 -11 -65 -38 -93 -60 -29 -23 -64 -44 -78 -47 -44 -9
-65 -21 -140 -81 -30 -24 -61 -43 -71 -43 -15 0 -36 -12 -141 -83 -19 -13 -46
-27 -59 -32 -24 -7 -101 -57 -135 -88 -11 -9 -57 -35 -102 -56 -45 -22 -85
-45 -90 -52 -4 -8 4 -21 22 -36 16 -13 54 -48 85 -79 l56 -56 -1 45 c-1 30 5
51 17 64 25 29 21 43 -13 43 -28 0 -30 2 -20 21 6 11 19 22 28 25 41 13 109
50 175 95 39 27 80 49 92 49 12 0 30 7 41 15 10 8 27 15 37 15 9 0 17 3 17 8
0 9 76 57 141 88 45 22 179 144 179 163 0 4 25 24 55 46 76 55 75 71 -2 36z"/>
<path d="M2127 2046 c-21 -8 -46 -21 -55 -30 -10 -8 -29 -20 -42 -26 -21 -8
-18 -9 18 -4 34 5 42 3 42 -10 0 -24 24 -19 74 15 40 26 44 33 36 50 -12 22
-22 23 -73 5z"/>
<path d="M3665 2049 c-10 -15 3 -25 16 -12 7 7 7 13 1 17 -6 3 -14 1 -17 -5z"/>
<path d="M2852 2007 c-15 -34 -16 -67 -2 -67 13 0 23 41 18 71 -4 24 -5 24
-16 -4z"/>
<path d="M6010 1975 c0 -14 -6 -25 -12 -25 -20 -1 -58 -84 -47 -101 5 -8 9
-24 9 -36 0 -28 16 -30 25 -4 3 10 14 26 25 36 11 10 20 26 20 36 0 11 9 19
25 21 35 4 34 20 -1 38 -21 11 -28 21 -26 38 2 12 -1 22 -7 22 -6 0 -11 -11
-11 -25z"/>
<path d="M1851 1968 c-19 -12 -29 -24 -22 -26 13 -4 77 24 86 38 11 18 -29 10
-64 -12z"/>
<path d="M3646 1974 c-8 -22 -7 -34 3 -34 5 0 11 11 13 25 6 28 -6 34 -16 9z"/>
<path d="M7240 1975 c-17 -21 -2 -90 20 -90 20 0 25 64 7 88 -12 17 -14 18
-27 2z"/>
<path d="M6180 1935 c0 -16 16 -20 24 -6 3 5 -1 11 -9 15 -9 3 -15 0 -15 -9z"/>
<path d="M8030 1941 c0 -10 30 -24 37 -17 3 2 -5 9 -16 16 -12 6 -21 7 -21 1z"/>
<path d="M3060 1881 c0 -34 4 -61 10 -61 6 0 10 24 10 54 0 30 -4 58 -10 61
-6 4 -10 -17 -10 -54z"/>
<path d="M1957 1899 c-27 -11 -69 -36 -95 -56 -26 -20 -38 -33 -27 -28 11 4
49 18 84 31 36 13 65 25 65 27 1 1 10 12 20 25 23 26 17 26 -47 1z"/>
<path d="M7630 1891 c0 -10 5 -31 10 -48 9 -25 19 -32 61 -41 66 -15 79 -15
79 2 0 8 5 16 11 18 20 7 -13 48 -38 48 -12 0 -28 6 -35 13 -7 8 -30 16 -51
20 -31 5 -37 3 -37 -12z"/>
<path d="M3722 1881 c2 -7 7 -12 11 -12 12 1 9 15 -3 20 -7 2 -11 -2 -8 -8z"/>
<path d="M1650 1869 c0 -5 5 -7 10 -4 6 3 10 8 10 11 0 2 -4 4 -10 4 -5 0 -10
-5 -10 -11z"/>
<path d="M3152 1795 c0 -16 2 -22 5 -12 2 9 2 23 0 30 -3 6 -5 -1 -5 -18z"/>
<path d="M1715 1778 c-22 -11 -51 -30 -65 -43 -33 -30 -76 -51 -122 -59 -20
-4 -55 -22 -77 -40 -33 -28 -38 -36 -27 -45 24 -20 89 4 143 52 25 22 40 31
130 77 34 18 71 43 84 56 l22 24 -24 -1 c-13 -1 -42 -10 -64 -21z"/>
<path d="M2249 1743 c-51 -55 -145 -103 -203 -103 -24 0 -32 -29 -11 -44 14
-10 16 -19 10 -37 -4 -13 -11 -60 -14 -104 l-6 -80 -37 -3 c-21 -2 -38 -8 -38
-14 0 -6 -11 -1 -25 12 -29 27 -34 84 -10 116 18 23 20 74 3 75 -32 3 -65 -4
-85 -17 -20 -12 -23 -23 -23 -73 0 -43 -5 -65 -20 -84 -11 -14 -20 -33 -20
-42 0 -11 -5 -15 -15 -11 -20 7 -19 -6 3 -35 9 -13 22 -33 28 -43 5 -11 34
-39 62 -64 l52 -45 0 57 0 57 58 -3 57 -3 3 -54 c2 -30 -2 -59 -7 -64 -18 -18
-12 -63 9 -82 11 -10 21 -16 23 -14 15 22 47 113 53 149 3 25 15 62 25 82 11
21 19 58 19 85 0 60 17 122 35 129 12 5 11 11 -2 39 -18 38 -11 116 12 135 8
7 38 15 67 19 46 5 53 9 65 39 8 20 9 32 3 32 -6 0 -14 9 -18 21 -7 19 -11 17
-53 -28z"/>
<path d="M3600 1750 c0 -5 4 -10 9 -10 6 0 13 5 16 10 3 6 -1 10 -9 10 -9 0
-16 -4 -16 -10z"/>
<path d="M7230 1741 c0 -12 5 -21 10 -21 6 0 10 6 10 14 0 8 -4 18 -10 21 -5
3 -10 -3 -10 -14z"/>
<path d="M7894 1728 c4 -37 64 -98 96 -98 17 0 19 3 10 19 -14 27 -13 34 4 28
27 -10 26 7 -1 35 -15 15 -35 28 -44 28 -10 0 -21 5 -24 10 -3 6 -15 10 -25
10 -16 0 -19 -6 -16 -32z"/>
<path d="M1464 1724 c-23 -8 -52 -26 -65 -40 l-24 -25 30 11 c51 18 115 53
115 62 0 10 -6 10 -56 -8z"/>
<path d="M7646 1653 c-3 -43 -8 -96 -11 -118 -2 -22 -10 -89 -16 -148 -11 -99
-10 -109 6 -121 18 -13 18 -34 -1 -139 -3 -20 -2 -43 4 -50 5 -6 10 -32 10
-57 0 -48 -19 -80 -49 -80 -10 0 -21 -4 -24 -10 -3 -5 -1 -10 5 -10 21 0 72
-64 77 -97 4 -20 -1 -47 -12 -70 -23 -49 -22 -48 -39 -34 -17 14 -40 5 -30
-11 4 -6 1 -9 -7 -6 -56 18 -46 158 12 158 22 0 25 16 6 33 -57 52 -54 52 -72
10 -9 -21 -21 -46 -26 -55 -5 -10 -9 -26 -9 -35 0 -10 -7 -27 -15 -37 -8 -11
-15 -28 -15 -39 0 -10 -11 -42 -25 -70 -21 -40 -24 -56 -16 -78 5 -15 7 -30 4
-33 -13 -13 10 -5 65 23 31 16 77 47 102 69 31 29 48 38 56 31 8 -7 23 -3 48
12 33 19 36 25 30 52 -3 17 -15 38 -26 47 -28 23 -16 60 19 60 25 0 25 1 18
58 -3 31 -6 72 -6 90 0 21 -5 32 -15 32 -22 0 -16 27 7 33 21 6 22 10 16 75
-4 38 -10 83 -13 100 -5 25 -3 32 10 32 21 0 20 21 -6 103 -17 55 -19 73 -10
88 19 30 14 65 -15 99 -22 26 -25 36 -17 58 8 22 17 28 47 30 40 3 49 17 18
27 -10 3 -22 17 -25 30 -5 18 -13 25 -30 25 -23 0 -24 -4 -30 -77z"/>
<path d="M2835 1681 c-11 -19 -9 -99 4 -115 22 -26 31 -8 31 60 0 49 -3 64
-14 64 -8 0 -17 -4 -21 -9z"/>
<path d="M8696 1681 c21 -21 106 -62 102 -50 -2 7 -24 23 -48 36 -44 24 -72
31 -54 14z"/>
<path d="M8050 1661 c0 -5 8 -12 17 -15 12 -5 13 -10 5 -18 -8 -8 -7 -18 3
-38 16 -30 64 -46 109 -34 34 8 48 -20 32 -66 -15 -44 -11 -89 8 -104 16 -12
22 -80 12 -150 -3 -29 0 -47 14 -65 10 -15 20 -37 21 -50 l4 -23 40 32 c22 17
43 44 48 58 8 30 -1 110 -13 117 -5 3 -11 31 -15 63 -12 118 -14 121 -50 136
-51 22 -78 82 -30 70 36 -9 30 7 -13 36 -57 38 -192 74 -192 51z"/>
<path d="M8410 1615 c19 -20 52 -44 73 -52 20 -8 37 -19 37 -24 0 -5 4 -9 8
-9 5 0 8 10 7 21 -2 22 -85 80 -135 94 -24 7 -23 5 10 -30z"/>
<path d="M2747 1623 c-12 -11 -8 -23 8 -23 8 0 15 7 15 15 0 16 -12 20 -23 8z"/>
<path d="M7798 1546 c-35 -44 -35 -56 -1 -97 29 -34 35 -82 18 -157 -6 -25 -3
-38 10 -52 11 -13 17 -34 16 -67 -1 -26 -1 -68 -1 -93 1 -25 1 -95 0 -157 0
-61 4 -114 9 -117 4 -3 34 11 65 32 50 33 56 40 50 62 -4 14 -8 57 -9 95 -1
39 -6 102 -10 140 -4 39 -7 91 -6 117 1 31 -6 64 -20 95 -12 26 -23 66 -24 88
-4 59 -16 97 -39 122 -12 13 -23 23 -26 23 -3 0 -17 -16 -32 -34z"/>
<path d="M8323 1543 c9 -9 19 -14 23 -11 10 10 -6 28 -24 28 -15 0 -15 -1 1
-17z"/>
<path d="M8000 1478 c0 -41 5 -79 11 -85 6 -6 10 -43 10 -83 0 -43 6 -88 15
-109 8 -20 19 -78 24 -130 5 -51 13 -98 19 -104 6 -6 20 -2 41 13 31 22 32 25
25 74 -4 28 -7 84 -6 125 1 41 -3 79 -9 86 -10 12 -26 131 -33 245 -2 34 -3
35 -50 38 l-47 3 0 -73z"/>
<path d="M8578 1534 c-26 -25 80 -97 108 -73 22 18 17 26 -29 54 -43 24 -68
31 -79 19z"/>
<path d="M7356 1434 c-11 -29 -6 -81 9 -94 21 -17 26 -9 33 46 3 33 1 49 -9
55 -20 12 -26 11 -33 -7z"/>
<path d="M8430 1414 c0 -20 7 -50 14 -67 8 -18 16 -45 18 -61 l3 -28 24 19
c20 16 25 32 29 82 l4 61 -35 15 c-52 21 -57 19 -57 -21z m60 -114 c0 -5 -4
-10 -10 -10 -5 0 -10 5 -10 10 0 6 5 10 10 10 6 0 10 -4 10 -10z"/>
<path d="M2221 1404 c-6 -15 -10 -28 -9 -29 7 -8 49 36 43 45 -10 17 -21 12
-34 -16z"/>
<path d="M3130 1341 c0 -6 5 -13 10 -16 6 -3 10 1 10 9 0 9 -4 16 -10 16 -5 0
-10 -4 -10 -9z"/>
<path d="M6948 1233 c-14 -16 -42 -85 -36 -87 2 -1 11 -8 21 -15 10 -8 36 -16
57 -18 l40 -4 0 43 c0 57 -10 94 -21 77 -6 -10 -12 -10 -27 4 -18 16 -20 16
-34 0z"/>
<path d="M7314 1239 c-10 -17 -15 -89 -6 -89 9 0 27 32 37 66 6 23 -19 42 -31
23z"/>
<path d="M7571 1118 c1 -13 -2 -31 -6 -40 -9 -23 4 -23 20 -2 13 18 8 64 -6
64 -5 0 -8 -10 -8 -22z"/>
<path d="M7231 1009 c-23 -37 -27 -64 -11 -74 15 -9 55 84 42 97 -7 7 -17 0
-31 -23z"/>
<path d="M3478 900 c-7 -24 -3 -38 8 -28 3 4 4 17 2 30 l-3 23 -7 -25z"/>
<path d="M7378 853 c-11 -12 -14 -23 -8 -33 13 -21 33 1 28 30 -3 22 -3 22
-20 3z"/>
<path d="M7162 853 c-7 -3 -22 -23 -33 -45 -17 -33 -18 -42 -7 -49 21 -14 26
-11 43 25 18 38 17 75 -3 69z"/>
<path d="M6930 748 c0 -7 5 -20 10 -28 8 -12 10 -9 10 13 0 15 -4 27 -10 27
-5 0 -10 -6 -10 -12z"/>
<path d="M7043 670 c-7 -10 -15 -45 -19 -77 l-5 -58 29 33 c29 32 56 105 44
117 -12 11 -38 4 -49 -15z"/>
<path d="M7303 673 c-1 -10 -4 -28 -8 -40 -4 -13 -3 -23 1 -23 10 0 44 56 44
71 0 17 -36 9 -37 -8z"/>
<path d="M7166 526 c4 -18 1 -25 -15 -29 -29 -7 -26 -31 4 -45 36 -17 85 8 85
43 0 15 -6 25 -14 25 -7 0 -19 7 -26 15 -20 24 -41 19 -34 -9z"/>
<path d="M3200 386 c0 -2 7 -6 15 -10 8 -3 15 -1 15 4 0 6 -7 10 -15 10 -8 0
-15 -2 -15 -4z"/>
<path d="M6527 283 c-10 -16 -25 -83 -19 -83 3 0 44 12 90 26 65 19 82 28 73
37 -7 7 -31 12 -54 13 -23 1 -52 4 -63 8 -12 4 -24 4 -27 -1z"/>
</g>
</svg>
